<svg xmlns="http://www.w3.org/2000/svg" xmlns:xlink="http://www.w3.org/1999/xlink" width="512" zoomAndPan="magnify" viewBox="0 0 384 383.999986" height="512" preserveAspectRatio="xMidYMid meet" version="1.0"><defs><clipPath id="c003bb4b24"><path d="M 286.515625 165.25 L 291.015625 165.25 L 291.015625 169.75 L 286.515625 169.75 Z M 286.515625 165.25 " clip-rule="nonzero"/></clipPath><clipPath id="d17a3a5d47"><path d="M 38.585938 20 L 378 20 L 378 364.972656 L 38.585938 364.972656 Z M 38.585938 20 " clip-rule="nonzero"/></clipPath></defs><g clip-path="url(#c003bb4b24)"><path fill="#ffffff" d="M 291.261719 167.625 C 291.261719 167.9375 291.199219 168.242188 291.078125 168.53125 C 290.960938 168.824219 290.789062 169.078125 290.566406 169.300781 C 290.34375 169.523438 290.085938 169.695312 289.796875 169.816406 C 289.503906 169.9375 289.203125 169.996094 288.886719 169.996094 C 288.570312 169.996094 288.269531 169.9375 287.980469 169.816406 C 287.6875 169.695312 287.429688 169.523438 287.207031 169.300781 C 286.984375 169.078125 286.816406 168.824219 286.695312 168.53125 C 286.574219 168.242188 286.511719 167.9375 286.511719 167.625 C 286.511719 167.308594 286.574219 167.007812 286.695312 166.714844 C 286.816406 166.425781 286.984375 166.167969 287.207031 165.945312 C 287.429688 165.722656 287.6875 165.550781 287.980469 165.429688 C 288.269531 165.3125 288.570312 165.25 288.886719 165.25 C 289.203125 165.25 289.503906 165.3125 289.796875 165.429688 C 290.085938 165.550781 290.34375 165.722656 290.566406 165.945312 C 290.789062 166.167969 290.960938 166.425781 291.078125 166.714844 C 291.199219 167.007812 291.261719 167.308594 291.261719 167.625 Z M 291.261719 167.625 " fill-opacity="1" fill-rule="nonzero"/></g><g clip-path="url(#d17a3a5d47)"><path fill="#ffffff" d="M 191.257812 277.179688 L 204.015625 277.179688 C 206.894531 277.179688 209.226562 279.507812 209.226562 282.410156 L 209.226562 311.980469 C 217.695312 311.539062 226.015625 309.957031 234.03125 307.320312 C 261.253906 298.359375 283.449219 277.136719 293.640625 250.335938 C 293.160156 246.734375 292.214844 246.292969 291.6875 246.074219 C 291.507812 245.988281 291.304688 245.898438 291.089844 245.765625 L 277.773438 253.457031 C 266.625 259.890625 253.179688 249.59375 256.503906 237.15625 C 257.503906 233.378906 259.90625 230.257812 263.214844 228.367188 L 299.429688 207.015625 C 298.289062 195.023438 294.972656 183.597656 289.53125 172.921875 L 268.402344 185.136719 L 272.175781 191.636719 C 277.914062 201.566406 274.492188 214.308594 264.5625 220.066406 C 254.625 225.820312 241.878906 222.394531 236.136719 212.464844 L 232.371094 205.917969 L 209.222656 219.273438 L 209.222656 251.214844 C 209.222656 254.070312 206.894531 256.445312 204.011719 256.445312 L 191.257812 256.445312 C 185.511719 256.445312 180.886719 261.109375 180.886719 266.8125 C 180.886719 272.523438 185.539062 277.179688 191.257812 277.179688 Z M 256.058594 314.21875 C 254.066406 315.359375 248.128906 315.316406 244.835938 314.4375 C 271.957031 303.101562 293.699219 280.519531 303.859375 252.796875 C 304.121094 252.046875 304.21875 251.300781 304.148438 250.511719 C 303.289062 241.109375 299.386719 238.164062 296.09375 236.628906 C 296.015625 236.582031 295.953125 236.539062 295.894531 236.539062 C 292.890625 234.78125 289.316406 234.78125 286.300781 236.496094 L 272.5625 244.449219 C 270.609375 245.589844 268.097656 244.886719 266.972656 242.953125 C 265.867188 241.019531 266.492188 238.511719 268.46875 237.375 L 320.953125 206.445312 L 340.820312 240.847656 L 332.511719 245.632812 C 329.054688 247.613281 326.367188 250.070312 324.046875 253.324219 C 301.128906 285.484375 288.964844 295.195312 256.058594 314.21875 Z M 353.746094 242.382812 L 366.203125 235.179688 L 338.703125 187.550781 L 326.246094 194.757812 Z M 325.71875 193.835938 L 325.730469 193.835938 C 325.730469 193.835938 325.730469 193.835938 325.71875 193.835938 Z M 191.257812 245.988281 L 198.800781 245.988281 L 198.800781 216.285156 C 198.800781 214.398438 199.792969 212.683594 201.410156 211.761719 L 231.667969 194.273438 C 234.164062 192.867188 237.351562 193.703125 238.789062 196.207031 L 245.164062 207.234375 C 249.769531 215.210938 261.765625 213.691406 264.167969 204.730469 C 264.886719 202.050781 264.527344 199.238281 263.152344 196.867188 L 256.769531 185.792969 C 255.332031 183.332031 256.1875 180.125 258.683594 178.675781 L 288.953125 161.234375 C 291.441406 159.785156 294.628906 160.621094 296.074219 163.125 C 302.941406 174.988281 307.347656 187.773438 309.238281 201.214844 L 315.914062 197.304688 C 314.542969 193.175781 316.214844 188.519531 320.128906 186.234375 L 334.402344 178.015625 C 338.875 175.425781 344.621094 176.960938 347.207031 181.445312 L 375.757812 230.871094 C 378.355469 235.398438 376.777344 241.109375 372.328125 243.699219 L 358.054688 251.917969 C 354.082031 254.210938 349.113281 253.292969 346.15625 249.808594 L 337.726562 254.640625 C 335.550781 255.914062 334 257.320312 332.539062 259.386719 C 308.660156 292.910156 295.191406 303.671875 261.273438 323.226562 C 254.644531 327.050781 239.054688 326.425781 234.34375 319.492188 C 234.101562 319.140625 233.851562 318.742188 233.59375 318.394531 C 224.023438 321.160156 214.089844 322.566406 204.015625 322.566406 C 201.136719 322.566406 198.800781 320.238281 198.800781 317.339844 L 198.800781 287.59375 L 191.257812 287.59375 C 179.792969 287.59375 170.460938 278.277344 170.460938 266.8125 C 170.460938 255.328125 179.8125 245.988281 191.257812 245.988281 Z M 239.671875 109.828125 C 245.96875 115.453125 251.472656 121.867188 256.109375 128.984375 L 230.484375 143.789062 C 227.96875 145.207031 227.152344 148.449219 228.574219 150.90625 L 234.953125 161.933594 C 237.808594 166.898438 236.109375 173.269531 231.152344 176.125 C 226.203125 178.964844 219.824219 177.273438 216.964844 172.304688 L 210.59375 161.277344 C 209.152344 158.769531 205.964844 157.9375 203.472656 159.386719 L 175.816406 175.335938 L 152.679688 161.980469 L 156.449219 155.433594 C 162.1875 145.503906 158.769531 132.761719 148.835938 127.007812 C 139.003906 121.324219 126.195312 124.671875 120.410156 134.652344 L 116.636719 141.152344 L 95.507812 128.984375 C 102.03125 118.921875 110.285156 110.355469 120.101562 103.367188 L 156.679688 124.0625 C 163.691406 128.019531 172.433594 125.683594 176.46875 118.699219 C 180.480469 111.765625 178.066406 102.878906 171.152344 98.886719 L 157.835938 91.195312 C 157.820312 90.933594 157.800781 90.714844 157.789062 90.539062 C 157.738281 89.964844 157.640625 88.914062 160.511719 86.714844 C 187.742188 82.320312 216.105469 90.140625 237.253906 107.761719 Z M 234.617188 87.332031 C 201.707031 68.308594 187.207031 62.640625 147.894531 58.863281 C 143.917969 58.511719 140.457031 57.414062 136.992188 55.390625 L 128.691406 50.601562 L 108.828125 85.003906 L 161.855469 115.015625 C 163.808594 116.113281 166.316406 115.453125 167.441406 113.519531 C 168.566406 111.542969 167.894531 109.039062 165.941406 107.894531 L 152.203125 99.988281 C 149.191406 98.230469 147.40625 95.15625 147.421875 91.683594 C 147.421875 91.59375 147.414062 91.507812 147.40625 91.464844 C 147.085938 87.816406 147.710938 82.941406 155.417969 77.492188 C 156.054688 77.050781 156.769531 76.789062 157.53125 76.613281 C 186.632812 71.5625 217.039062 79.117188 240.414062 96.957031 C 239.539062 93.617188 236.609375 88.476562 234.617188 87.332031 Z M 111.105469 31.445312 L 83.605469 79.074219 L 96.058594 86.277344 L 123.558594 38.652344 Z M 265.960938 135.355469 L 240.207031 150.207031 L 243.980469 156.753906 C 252.082031 170.792969 241.628906 187.945312 226.023438 187.945312 C 218.613281 187.945312 211.664062 183.96875 207.9375 177.535156 L 204.171875 171.03125 L 178.421875 185.882812 C 176.8125 186.804688 174.824219 186.804688 173.210938 185.882812 L 142.953125 168.394531 C 140.464844 166.945312 139.609375 163.78125 141.046875 161.277344 L 147.421875 150.25 C 150.285156 145.285156 148.578125 138.914062 143.625 136.058594 C 138.664062 133.203125 132.304688 134.917969 129.441406 139.835938 L 123.0625 150.910156 C 121.621094 153.414062 118.441406 154.25 115.945312 152.796875 L 85.667969 135.3125 C 83.183594 133.90625 82.328125 130.699219 83.757812 128.195312 C 90.605469 116.332031 99.476562 106.140625 110.179688 97.746094 L 103.417969 93.925781 C 100.441406 97.273438 95.671875 98.050781 91.757812 95.8125 L 77.484375 87.597656 C 73.003906 85.007812 71.46875 79.25 74.054688 74.769531 L 102.605469 25.339844 C 105.183594 20.859375 110.933594 19.324219 115.410156 21.871094 L 129.683594 30.128906 C 133.695312 32.457031 135.332031 37.289062 133.777344 41.507812 L 142.203125 46.386719 C 144.382812 47.617188 146.382812 48.273438 148.886719 48.492188 C 189.855469 52.402344 205.902344 58.730469 239.824219 78.28125 C 246.285156 82.015625 253.761719 95.855469 250.035156 103.5 C 249.835938 103.898438 249.652344 104.292969 249.457031 104.6875 C 256.632812 111.585938 262.816406 119.496094 267.859375 128.238281 C 269.300781 130.699219 268.445312 133.90625 265.960938 135.355469 Z M 62.207031 354.246094 L 117.210938 354.246094 L 117.210938 339.878906 L 62.207031 339.878906 Z M 154.46875 318.964844 L 154.46875 294.578125 L 146.929688 294.578125 C 135.460938 294.578125 126.125 285.21875 126.125 273.753906 C 126.125 262.285156 135.460938 252.972656 146.929688 252.972656 L 154.46875 252.972656 L 154.46875 226.257812 L 126.816406 210.265625 C 124.300781 208.847656 123.484375 205.609375 124.90625 203.148438 L 131.285156 192.121094 C 135.824219 184.296875 128.679688 174.472656 119.613281 176.917969 C 116.921875 177.621094 114.675781 179.335938 113.304688 181.75 L 106.925781 192.78125 C 105.492188 195.285156 102.300781 196.117188 99.804688 194.667969 L 74.183594 179.90625 C 70.175781 187.769531 67.316406 196.074219 65.621094 204.730469 C 60.152344 232.453125 67.488281 261.890625 85.363281 283.816406 C 88.710938 285.179688 89.570312 284.605469 90.046875 284.253906 C 90.207031 284.167969 90.386719 284.035156 90.589844 283.902344 L 90.589844 268.523438 C 90.589844 260.484375 97.097656 253.980469 105.109375 253.980469 C 113.105469 253.980469 119.617188 260.484375 119.617188 268.480469 L 119.996094 310.484375 C 130.949219 315.492188 142.503906 318.347656 154.46875 318.964844 Z M 54.277344 209.519531 C 50.527344 238.648438 59.183594 268.789062 78.136719 291.417969 C 78.628906 292.03125 79.25 292.515625 79.953125 292.824219 C 88.519531 296.777344 93.046875 294.886719 96.023438 292.824219 C 96.089844 292.734375 96.152344 292.691406 96.203125 292.691406 C 99.222656 290.933594 101.015625 287.859375 101.015625 284.386719 L 101.015625 268.527344 C 101.015625 266.242188 102.851562 264.441406 105.109375 264.441406 C 107.359375 264.441406 109.195312 266.242188 109.195312 268.527344 L 109.738281 329.421875 L 70.007812 329.421875 L 70.007812 319.84375 C 70.007812 315.84375 69.242188 312.285156 67.578125 308.640625 C 51.179688 272.742188 48.851562 257.320312 48.851562 219.316406 C 48.847656 217.03125 51.851562 211.890625 54.277344 209.519531 Z M 59.585938 329.597656 C 55.167969 330.34375 51.78125 334.164062 51.78125 338.824219 L 51.78125 355.300781 C 51.78125 360.441406 55.984375 364.65625 61.15625 364.65625 L 118.257812 364.65625 C 123.425781 364.65625 127.632812 360.441406 127.632812 355.300781 L 127.632812 338.824219 C 127.632812 334.296875 124.417969 330.519531 120.167969 329.640625 L 120.101562 321.863281 C 132.65625 326.960938 145.902344 329.550781 159.578125 329.550781 C 162.527344 329.550781 164.894531 327.214844 164.894531 324.324219 L 164.894531 289.351562 C 164.894531 286.496094 162.566406 284.164062 159.679688 284.164062 L 146.933594 284.164062 C 141.207031 284.164062 136.550781 279.507812 136.550781 273.753906 C 136.550781 268.039062 141.207031 263.382812 146.933594 263.382812 L 159.679688 263.382812 C 162.566406 263.382812 164.894531 261.054688 164.894531 258.15625 L 164.894531 223.226562 C 164.894531 221.378906 163.90625 219.667969 162.285156 218.699219 L 136.542969 203.851562 L 140.316406 197.304688 C 146.039062 187.390625 142.640625 174.65625 132.699219 168.921875 C 122.769531 163.195312 110.011719 166.582031 104.277344 176.519531 L 100.503906 183.066406 L 74.757812 168.171875 C 72.269531 166.722656 69.078125 167.601562 67.640625 170.105469 C 62.597656 178.804688 58.855469 188.121094 56.464844 197.785156 C 56.019531 197.828125 55.578125 197.875 55.136719 197.875 C 46.679688 198.488281 38.425781 211.890625 38.425781 219.316406 C 38.425781 258.503906 41.003906 275.550781 58.09375 312.988281 C 59.140625 315.269531 59.589844 317.335938 59.589844 319.839844 L 59.589844 329.597656 Z M 59.585938 329.597656 " fill-opacity="1" fill-rule="evenodd"/></g></svg>