<svg xmlns="http://www.w3.org/2000/svg" xmlns:xlink="http://www.w3.org/1999/xlink" width="512" zoomAndPan="magnify" viewBox="0 0 384 383.999986" height="512" preserveAspectRatio="xMidYMid meet" version="1.0"><defs><clipPath id="6eac396801"><path d="M 201.511719 152.53125 L 206.011719 152.53125 L 206.011719 157.03125 L 201.511719 157.03125 Z M 201.511719 152.53125 " clip-rule="nonzero"/></clipPath><clipPath id="9a9a10c233"><path d="M 22 52.089844 L 173 52.089844 L 173 345 L 22 345 Z M 22 52.089844 " clip-rule="nonzero"/></clipPath><clipPath id="fb0d012fbf"><path d="M 212 52.089844 L 363 52.089844 L 363 345 L 212 345 Z M 212 52.089844 " clip-rule="nonzero"/></clipPath></defs><g clip-path="url(#6eac396801)"><path fill="#ffffff" d="M 206.257812 154.902344 C 206.257812 155.21875 206.195312 155.519531 206.078125 155.8125 C 205.957031 156.101562 205.785156 156.359375 205.5625 156.582031 C 205.339844 156.804688 205.082031 156.976562 204.792969 157.097656 C 204.5 157.214844 204.199219 157.277344 203.882812 157.277344 C 203.570312 157.277344 203.265625 157.214844 202.976562 157.097656 C 202.683594 156.976562 202.429688 156.804688 202.207031 156.582031 C 201.984375 156.359375 201.8125 156.101562 201.691406 155.8125 C 201.570312 155.519531 201.511719 155.21875 201.511719 154.902344 C 201.511719 154.589844 201.570312 154.285156 201.691406 153.996094 C 201.8125 153.703125 201.984375 153.449219 202.207031 153.226562 C 202.429688 153.003906 202.683594 152.832031 202.976562 152.710938 C 203.265625 152.589844 203.570312 152.53125 203.882812 152.53125 C 204.199219 152.53125 204.5 152.589844 204.792969 152.710938 C 205.082031 152.832031 205.339844 153.003906 205.5625 153.226562 C 205.785156 153.449219 205.957031 153.703125 206.078125 153.996094 C 206.195312 154.285156 206.257812 154.589844 206.257812 154.902344 Z M 206.257812 154.902344 " fill-opacity="1" fill-rule="nonzero"/></g><path fill="#ffffff" d="M 168.0625 269.578125 C 170.582031 270.335938 172.824219 272.449219 173.71875 274.875 C 174.601562 277.304688 174.117188 279.398438 172.867188 280.703125 L 168.128906 285.664062 C 166.886719 286.984375 164.773438 287.558594 162.28125 286.804688 C 159.769531 286.023438 157.515625 283.914062 156.632812 281.507812 C 156.273438 280.550781 156.230469 279.683594 156.246094 278.855469 L 165.378906 269.351562 C 166.285156 269.070312 167.257812 269.511719 168.0625 269.578125 Z M 155.09375 249.269531 C 158.113281 249.886719 160.679688 252.605469 161.703125 255.476562 C 162.71875 258.363281 162.148438 261.011719 160.503906 262.726562 L 151.511719 272.136719 C 149.863281 273.851562 147.21875 274.585938 144.234375 273.703125 C 141.257812 272.824219 138.648438 270.386719 137.609375 267.488281 C 136.582031 264.617188 137.207031 261.921875 138.851562 260.214844 L 147.796875 250.84375 C 150.105469 248.417969 152.355469 248.707031 155.09375 249.269531 Z M 135.933594 231.976562 C 139.539062 232.644531 142.140625 235.109375 143.15625 238.007812 C 144.183594 240.898438 143.605469 243.550781 141.957031 245.265625 L 132.96875 254.675781 C 131.324219 256.390625 128.652344 257.125 125.691406 256.257812 C 122.714844 255.371094 120.125 252.875 119.109375 250.007812 C 118.058594 247.113281 118.644531 244.464844 120.285156 242.75 L 129.253906 233.363281 C 130.476562 232.042969 132.304688 231.304688 135.933594 231.976562 Z M 118.019531 214.285156 C 121.117188 215.070312 123.628906 217.625 124.652344 220.496094 C 125.671875 223.390625 125.074219 226.035156 123.429688 227.769531 L 114.457031 237.160156 C 112.8125 238.871094 110.140625 239.605469 107.179688 238.738281 C 104.203125 237.847656 101.570312 235.402344 100.554688 232.507812 C 99.527344 229.632812 100.105469 226.972656 101.753906 225.230469 L 111.296875 215.285156 C 113.746094 213.667969 115.613281 213.6875 118.019531 214.285156 Z M 239.824219 153.269531 L 281.078125 206.71875 C 274.25 214.441406 266.324219 218.582031 258.496094 221.804688 L 219.398438 191.328125 C 213.839844 187.007812 206.113281 179.351562 195.453125 180.714844 L 179.878906 182.734375 C 171.667969 183.804688 166.125 182.757812 162.773438 180.203125 C 159.410156 177.640625 158.339844 174.191406 160.1875 172.59375 C 162.042969 170.988281 165.816406 171.832031 170.199219 170.273438 L 198.128906 160.328125 C 203.378906 158.4375 211.707031 158.0625 220.023438 157.4375 C 226.964844 156.902344 234.011719 156.257812 239.824219 153.269531 Z M 182.863281 147.777344 C 189.246094 147.441406 194.296875 149.265625 199.191406 151.625 C 197.898438 151.941406 196.613281 152.292969 195.386719 152.734375 L 168.550781 162.351562 C 164.453125 162.945312 161.433594 163.191406 158.671875 164.023438 C 155.800781 164.886719 152.972656 167.222656 151.769531 170.269531 C 149.484375 176.058594 152.417969 182.464844 157.84375 186.632812 C 163.300781 190.789062 171.664062 192.902344 181.703125 190.589844 L 196.453125 188.722656 C 202.554688 187.9375 208.203125 192.851562 214.183594 197.535156 L 257.375 231.179688 C 259.265625 232.648438 260.246094 235.203125 259.640625 238.210938 C 259.066406 241.21875 256.839844 243.996094 254.03125 245.308594 C 251.230469 246.601562 248.472656 246.265625 246.605469 244.800781 L 224.710938 227.773438 C 223.976562 227.175781 223.042969 226.859375 222.109375 226.886719 C 218.28125 226.976562 216.71875 231.824219 219.773438 234.136719 L 234.902344 245.9375 C 236.792969 247.40625 237.746094 249.945312 237.167969 252.941406 C 236.566406 255.949219 234.367188 258.773438 231.558594 260.066406 C 228.730469 261.359375 225.992188 261.023438 224.109375 259.546875 L 208.957031 247.757812 C 208.195312 247.15625 207.261719 246.847656 206.328125 246.867188 C 202.5 246.972656 200.945312 251.828125 203.992188 254.117188 L 214.40625 262.238281 C 216.300781 263.714844 217.253906 266.226562 216.675781 269.230469 C 216.074219 272.230469 213.871094 275.054688 211.042969 276.363281 C 208.355469 277.609375 205.703125 277.320312 203.832031 275.988281 L 193.175781 267.757812 C 192.417969 267.152344 191.507812 266.847656 190.550781 266.871094 C 186.726562 266.960938 185.167969 271.835938 188.214844 274.121094 L 197.542969 281.371094 C 197.675781 282.152344 197.71875 283.019531 197.519531 283.996094 C 197.011719 286.519531 195.089844 288.960938 192.738281 290.078125 C 190.375 291.1875 188.214844 290.917969 186.773438 289.785156 L 180.058594 284.558594 C 182.4375 280.976562 182.769531 276.351562 181.273438 272.09375 C 179.324219 266.441406 174.597656 262.863281 169.84375 261.707031 C 170.507812 258.808594 170.351562 255.71875 169.308594 252.785156 C 167.371094 247.355469 162.917969 243.144531 157.375 241.519531 C 155.492188 240.96875 153.570312 240.761719 151.683594 240.898438 C 151.683594 239.03125 151.414062 237.117188 150.75 235.292969 C 148.8125 229.859375 144.359375 225.679688 138.84375 224.03125 C 136.972656 223.496094 135.035156 223.296875 133.167969 223.40625 C 133.195312 221.535156 132.898438 219.628906 132.257812 217.796875 C 130.324219 212.367188 125.824219 208.164062 120.285156 206.539062 C 115.25 205.046875 109.894531 206.027344 106.023438 209.273438 C 105.261719 208.234375 104.421875 207.1875 103.371094 206.160156 L 145.023438 153.359375 C 150.214844 153.421875 155.730469 152.238281 160.160156 151.398438 C 167.910156 149.910156 176.789062 148.113281 182.863281 147.777344 Z M 133.597656 145.347656 L 138.21875 148.980469 L 97.164062 201.050781 L 92.476562 197.398438 C 86.6875 192.882812 85.304688 189.878906 85.507812 186.632812 C 85.707031 183.378906 88.21875 178.753906 93.007812 172.675781 L 109.472656 151.777344 C 114.28125 145.707031 118.21875 142.171875 122.265625 141.480469 C 126.320312 140.769531 129.257812 141.96875 133.597656 145.347656 Z M 262.570312 141.433594 C 266.613281 142.171875 270.488281 145.777344 275.203125 151.917969 L 291.382812 173.011719 C 296.097656 179.15625 298.550781 183.820312 298.699219 187.078125 C 298.859375 190.324219 297.429688 193.300781 291.582031 197.734375 L 287.019531 201.203125 L 246.523438 148.710938 L 251.171875 145.179688 C 255.558594 141.832031 258.515625 140.679688 262.570312 141.433594 Z M 246.296875 138.71875 L 238.308594 144.820312 C 234.703125 147.554688 227.453125 148.78125 219.390625 149.398438 C 217.546875 149.539062 215.652344 149.6875 213.78125 149.804688 C 205.929688 146.328125 196.625 138.941406 182.40625 139.695312 C 175.222656 140.082031 166.277344 141.996094 158.628906 143.457031 C 154.554688 144.332031 150.433594 145.015625 146.609375 145.261719 C 143.914062 143.195312 141.21875 141.078125 138.546875 138.984375 C 131.71875 133.648438 125.0625 131.578125 118.972656 133.46875 C 112.871094 135.359375 108.238281 140.300781 103.125 146.765625 L 86.660156 167.644531 C 81.5625 174.117188 77.824219 179.765625 77.421875 186.136719 C 77.046875 192.410156 80.585938 198.265625 87.261719 203.535156 L 95.914062 210.28125 C 98.050781 212.019531 99.34375 213.550781 100.277344 215.128906 L 95.914062 219.691406 C 92.019531 223.761719 91.019531 229.796875 92.953125 235.226562 C 94.890625 240.65625 99.34375 244.859375 104.859375 246.503906 C 106.753906 247.039062 108.667969 247.238281 110.558594 247.132812 C 110.558594 249.003906 110.839844 250.871094 111.496094 252.714844 C 113.429688 258.121094 117.878906 262.328125 123.417969 263.976562 C 125.289062 264.527344 127.199219 264.710938 129.066406 264.597656 C 129.050781 266.46875 129.359375 268.378906 130.003906 270.203125 C 131.9375 275.636719 136.394531 279.839844 141.933594 281.464844 C 144.070312 282.105469 146.292969 282.289062 148.429688 282.046875 C 148.585938 282.796875 148.789062 283.53125 149.054688 284.289062 C 150.855469 289.179688 154.886719 292.988281 159.910156 294.523438 C 164.714844 295.996094 170.039062 295.105469 173.527344 291.632812 L 174.621094 290.566406 L 182.566406 296.660156 C 186.371094 299.578125 191.777344 299.558594 196.207031 297.375 C 201.949219 294.523438 204.953125 289.476562 205.527344 285.050781 C 211.070312 285.785156 215.570312 283.734375 219.503906 280.136719 C 222.855469 277.042969 224.417969 273.035156 224.859375 268.558594 C 230.9375 269.832031 236.328125 267.445312 240.617188 263.246094 C 243.671875 260.261719 244.78125 256.476562 245.25 253.207031 C 249.09375 254.652344 253.503906 254.429688 257.425781 252.609375 C 262.648438 250.203125 266.453125 245.398438 267.570312 239.75 C 268.414062 235.453125 267.519531 231.0625 265.101562 227.6875 C 273.128906 224.039062 281.789062 218.9375 289.042969 209.816406 L 296.476562 204.210938 C 303.367188 198.960938 307.089844 193.058594 306.773438 186.691406 C 306.464844 180.332031 302.816406 174.636719 297.785156 168.09375 L 281.605469 146.996094 C 276.597656 140.453125 271.886719 134.289062 264.140625 132.90625 C 256.398438 131.53125 251.484375 134.804688 246.296875 138.71875 Z M 246.296875 138.71875 " fill-opacity="1" fill-rule="nonzero"/><g clip-path="url(#9a9a10c233)"><path fill="#ffffff" d="M 146.613281 323.339844 C 141.894531 330.90625 135.414062 335.914062 127.722656 336.804688 C 120.261719 337.667969 111.609375 334.222656 102.886719 327.410156 C 110.78125 323.738281 118.058594 319.890625 126 319 C 133.945312 318.089844 139.621094 319.71875 146.613281 323.339844 Z M 80.058594 284.953125 C 88.289062 285.785156 94.296875 289.539062 101.167969 297.488281 C 93.984375 302.785156 86.128906 305.035156 78.652344 303.003906 C 71.394531 301.050781 64.636719 294.640625 59.070312 285.074219 C 65.589844 284.707031 71.824219 284.113281 80.058594 284.953125 Z M 34.507812 228.484375 C 42.71875 231.445312 50.570312 233.851562 55.644531 237.097656 C 61.117188 240.613281 65.171875 246.445312 68.375 256.429688 C 59.699219 258.480469 51.566406 257.453125 45.496094 252.667969 C 39.605469 248.019531 35.882812 239.476562 34.507812 228.484375 Z M 32.039062 167.070312 C 38.554688 172.855469 44.960938 177.992188 48.460938 182.910156 C 52.242188 188.183594 53.84375 195.109375 53.109375 205.589844 C 44.285156 204.246094 37.140625 200.289062 33.265625 193.589844 C 29.527344 187.070312 29.234375 177.769531 32.039062 167.070312 Z M 54.757812 108.210938 C 58.164062 116.242188 61.769531 123.628906 62.839844 129.570312 C 63.992188 135.957031 62.480469 142.90625 57.363281 152.046875 C 49.929688 147.082031 45.152344 140.453125 44.523438 132.734375 C 43.921875 125.257812 47.632812 116.710938 54.757812 108.210938 Z M 93.558594 63.597656 C 94.652344 72.230469 95.453125 80.316406 94.878906 86.316406 C 94.257812 92.796875 91.585938 99.066406 84.148438 106.480469 C 78.363281 99.695312 75.5625 92.015625 77.054688 84.402344 C 78.5 77.035156 84.398438 69.832031 93.558594 63.597656 Z M 94.628906 53.316406 C 80.4375 60.96875 71.890625 71.519531 69.660156 82.953125 C 67.640625 93.214844 70.84375 103.742188 78.390625 112.238281 C 75.226562 116.710938 72.355469 121.316406 69.777344 126.082031 C 67.816406 117.691406 63.742188 109.785156 59.539062 99.488281 C 58.445312 96.839844 55.039062 96.132812 53 98.046875 C 41.222656 109.078125 36.066406 121.738281 37.003906 133.335938 C 37.957031 144.90625 45.144531 155.078125 56.628906 161.105469 C 55.378906 166.554688 54.492188 172.054688 53.910156 177.617188 C 48.5 170.453125 41.160156 164.980469 32.636719 157.125 C 30.410156 155.054688 27.121094 156.050781 26.121094 158.59375 C 20.246094 173.605469 20.914062 187.273438 26.722656 197.351562 C 32.308594 207.058594 42.628906 213.039062 54.976562 213.949219 C 55.871094 219.382812 57.097656 224.765625 58.648438 230.101562 C 50.96875 225.527344 42.222656 222.980469 31.394531 219.023438 C 28.003906 217.796875 25.800781 220.003906 25.871094 222.832031 C 26.226562 238.941406 31.675781 251.382812 40.824219 258.585938 C 49.636719 265.554688 61.476562 267.269531 73.3125 263.488281 C 76.226562 268.273438 79.40625 272.847656 82.875 277.238281 C 73.710938 275.742188 64.4375 277.484375 52.484375 277.613281 C 49.351562 277.636719 47.765625 280.777344 48.878906 283.261719 C 55.507812 297.972656 65.453125 307.226562 76.667969 310.28125 C 87.480469 313.214844 99.011719 310.164062 108.375 302.113281 C 112.832031 305.429688 117.457031 308.476562 122.261719 311.253906 C 113.140625 313.257812 105.066406 318.175781 94.007812 322.914062 C 91.15625 324.140625 90.6875 327.390625 92.757812 329.507812 C 104.105469 340.960938 117.039062 345.640625 128.589844 344.300781 C 139.734375 343.015625 149.347656 335.894531 155.0625 324.875 C 159.070312 325.96875 163.117188 326.921875 167.242188 327.652344 C 172.648438 328.71875 174.09375 320.507812 168.617188 319.6875 C 124.183594 311.878906 86.996094 281.574219 70.351562 239.625 C 53.929688 198.261719 59.898438 150.324219 85.945312 115.480469 C 92.554688 106.65625 101.660156 100.398438 103.035156 87.042969 C 104.019531 77.695312 101.722656 68.511719 100.523438 56.472656 C 100.21875 53.410156 97.015625 52.027344 94.628906 53.316406 Z M 94.628906 53.316406 " fill-opacity="1" fill-rule="nonzero"/></g><g clip-path="url(#fb0d012fbf)"><path fill="#ffffff" d="M 237.601562 323.339844 C 242.316406 330.90625 248.789062 335.914062 256.46875 336.804688 C 263.945312 337.667969 272.578125 334.222656 281.300781 327.410156 C 273.398438 323.738281 266.148438 319.890625 258.207031 319 C 250.261719 318.089844 244.585938 319.71875 237.601562 323.339844 Z M 304.15625 284.953125 C 295.890625 285.785156 289.886719 289.539062 283.011719 297.488281 C 290.222656 302.785156 298.078125 305.035156 305.554688 303.003906 C 312.78125 301.050781 319.546875 294.640625 325.132812 285.074219 C 318.617188 284.707031 312.382812 284.113281 304.15625 284.953125 Z M 349.679688 228.484375 C 341.488281 231.445312 333.632812 233.851562 328.539062 237.097656 C 323.066406 240.613281 319.039062 246.445312 315.808594 256.429688 C 324.511719 258.480469 332.609375 257.453125 338.707031 252.667969 C 344.609375 248.019531 348.324219 239.476562 349.679688 228.484375 Z M 352.15625 167.070312 C 345.65625 172.855469 339.246094 177.992188 335.730469 182.910156 C 331.941406 188.183594 330.367188 195.109375 331.101562 205.589844 C 339.914062 204.246094 347.078125 200.289062 350.929688 193.589844 C 354.6875 187.070312 354.957031 177.769531 352.15625 167.070312 Z M 329.457031 108.210938 C 326.050781 116.242188 322.445312 123.628906 321.355469 129.570312 C 320.199219 135.957031 321.714844 142.90625 326.855469 152.046875 C 334.261719 147.082031 339.046875 140.453125 339.6875 132.734375 C 340.285156 125.257812 336.574219 116.710938 329.457031 108.210938 Z M 290.644531 63.597656 C 289.550781 72.230469 288.753906 80.316406 289.335938 86.316406 C 289.953125 92.796875 292.605469 99.066406 300.03125 106.480469 C 305.820312 99.695312 308.628906 92.015625 307.132812 84.402344 C 305.707031 77.035156 299.792969 69.832031 290.644531 63.597656 Z M 289.578125 53.316406 C 303.769531 60.96875 312.296875 71.519531 314.546875 82.953125 C 316.550781 93.214844 313.34375 103.742188 305.824219 112.238281 C 308.980469 116.710938 311.851562 121.316406 314.414062 126.082031 C 316.375 117.691406 320.460938 109.785156 324.667969 99.488281 C 325.734375 96.839844 329.164062 96.132812 331.207031 98.046875 C 342.957031 109.078125 348.148438 121.738281 347.1875 133.335938 C 346.25 144.90625 339.070312 155.078125 327.585938 161.105469 C 328.828125 166.554688 329.722656 172.054688 330.296875 177.617188 C 335.707031 170.453125 343.023438 164.980469 351.550781 157.125 C 353.796875 155.054688 357.09375 156.050781 358.09375 158.59375 C 363.96875 173.605469 363.277344 187.273438 357.46875 197.351562 C 351.886719 207.058594 341.582031 213.039062 329.234375 213.949219 C 328.339844 219.382812 327.125 224.765625 325.5625 230.101562 C 333.214844 225.527344 341.988281 222.980469 352.824219 219.023438 C 356.203125 217.796875 358.410156 220.003906 358.339844 222.832031 C 357.964844 238.941406 352.535156 251.382812 343.386719 258.585938 C 334.574219 265.554688 322.734375 267.269531 310.902344 263.488281 C 307.980469 268.273438 304.773438 272.847656 301.332031 277.238281 C 310.5 275.742188 319.757812 277.484375 331.730469 277.613281 C 334.863281 277.636719 336.445312 280.777344 335.308594 283.261719 C 328.699219 297.972656 318.753906 307.226562 307.511719 310.28125 C 296.726562 313.214844 285.199219 310.164062 275.804688 302.113281 C 271.382812 305.429688 266.75 308.476562 261.917969 311.253906 C 271.066406 313.257812 279.125 318.175781 290.207031 322.914062 C 293.050781 324.140625 293.515625 327.390625 291.421875 329.507812 C 280.101562 340.960938 267.175781 345.640625 255.601562 344.300781 C 244.453125 343.015625 234.839844 335.894531 229.140625 324.875 C 225.132812 325.96875 221.089844 326.921875 216.972656 327.652344 C 211.566406 328.71875 210.117188 320.507812 215.589844 319.6875 C 260.03125 311.878906 297.210938 281.574219 313.851562 239.625 C 330.277344 198.261719 324.316406 150.324219 298.257812 115.480469 C 291.648438 106.65625 282.527344 100.398438 281.144531 87.042969 C 280.191406 77.695312 282.464844 68.511719 283.683594 56.472656 C 283.972656 53.410156 287.175781 52.027344 289.578125 53.316406 Z M 289.578125 53.316406 " fill-opacity="1" fill-rule="nonzero"/></g></svg>