<svg xmlns="http://www.w3.org/2000/svg" xmlns:xlink="http://www.w3.org/1999/xlink" width="512" zoomAndPan="magnify" viewBox="0 0 384 383.999986" height="512" preserveAspectRatio="xMidYMid meet" version="1.0"><defs><clipPath id="e238a8f36c"><path d="M 216.964844 187.246094 L 221.464844 187.246094 L 221.464844 191.746094 L 216.964844 191.746094 Z M 216.964844 187.246094 " clip-rule="nonzero"/></clipPath><clipPath id="6c89ed987b"><path d="M 19.199219 8 L 364.949219 8 L 364.949219 376 L 19.199219 376 Z M 19.199219 8 " clip-rule="nonzero"/></clipPath></defs><g clip-path="url(#e238a8f36c)"><path fill="#ffffff" d="M 221.710938 189.617188 C 221.710938 189.933594 221.652344 190.234375 221.53125 190.527344 C 221.410156 190.816406 221.238281 191.074219 221.015625 191.296875 C 220.792969 191.519531 220.539062 191.691406 220.246094 191.8125 C 219.957031 191.929688 219.652344 191.992188 219.339844 191.992188 C 219.023438 191.992188 218.722656 191.929688 218.429688 191.8125 C 218.140625 191.691406 217.882812 191.519531 217.660156 191.296875 C 217.4375 191.074219 217.265625 190.816406 217.144531 190.527344 C 217.027344 190.234375 216.964844 189.933594 216.964844 189.617188 C 216.964844 189.304688 217.027344 189 217.144531 188.710938 C 217.265625 188.417969 217.4375 188.164062 217.660156 187.941406 C 217.882812 187.71875 218.140625 187.546875 218.429688 187.425781 C 218.722656 187.304688 219.023438 187.246094 219.339844 187.246094 C 219.652344 187.246094 219.957031 187.304688 220.246094 187.425781 C 220.539062 187.546875 220.792969 187.71875 221.015625 187.941406 C 221.238281 188.164062 221.410156 188.417969 221.53125 188.710938 C 221.652344 189 221.710938 189.304688 221.710938 189.617188 Z M 221.710938 189.617188 " fill-opacity="1" fill-rule="nonzero"/></g><g clip-path="url(#6c89ed987b)"><path fill="#ffffff" d="M 149.589844 351.691406 L 59.882812 352.480469 C 58.945312 352.617188 58.207031 353.46875 58.214844 354.417969 L 58.382812 371.886719 C 58.519531 372.820312 59.371094 373.558594 60.320312 373.550781 C 90.097656 373.28125 119.96875 373.035156 149.78125 372.785156 C 150.820312 372.777344 151.703125 371.867188 151.695312 370.828125 L 151.527344 353.355469 C 151.390625 352.417969 150.539062 351.683594 149.589844 351.691406 Z M 300.953125 164.820312 C 304.867188 164.691406 308.027344 161.453125 308.027344 157.503906 L 308.027344 152.121094 L 254.238281 152.121094 L 254.238281 157.503906 C 254.238281 161.53125 257.53125 164.824219 261.558594 164.824219 L 261.800781 164.824219 L 261.800781 169.496094 L 247.644531 169.496094 C 244.359375 169.496094 241.695312 172.160156 241.695312 175.445312 L 241.695312 212.207031 C 237.273438 214.402344 234.238281 218.957031 234.238281 224.222656 C 234.238281 231.628906 240.238281 237.632812 247.644531 237.632812 C 255.050781 237.632812 261.054688 231.628906 261.054688 224.222656 C 261.054688 218.957031 258.019531 214.398438 253.597656 212.207031 L 253.597656 181.402344 L 269.308594 181.402344 L 269.308594 182.769531 C 269.308594 186.792969 272.601562 190.085938 276.625 190.085938 L 286.125 190.085938 C 290.148438 190.085938 293.445312 186.792969 293.445312 182.769531 L 293.445312 177.910156 L 293.628906 177.910156 C 297.65625 177.910156 300.949219 174.613281 300.949219 170.589844 L 300.949219 164.820312 Z M 217.527344 262.335938 C 210.121094 262.335938 204.117188 256.332031 204.117188 248.925781 C 204.117188 243.660156 207.15625 239.101562 211.574219 236.910156 L 211.574219 134.261719 C 211.574219 130.976562 214.242188 128.3125 217.527344 128.3125 L 251.5625 128.3125 C 246.378906 108.855469 236.089844 105.84375 236.089844 85.773438 C 236.089844 60.894531 256.253906 40.730469 281.128906 40.730469 C 306.007812 40.730469 326.171875 60.894531 326.171875 85.773438 C 326.171875 109.359375 311.96875 109.382812 308.527344 140.21875 L 294.859375 140.21875 L 294.859375 102.527344 L 299.375 102.527344 C 308.417969 102.527344 315.796875 95.148438 315.796875 86.105469 C 315.796875 77.0625 308.417969 69.683594 299.375 69.683594 C 290.332031 69.683594 282.953125 77.0625 282.953125 86.105469 L 282.953125 90.621094 L 279.308594 90.621094 L 279.308594 86.105469 C 279.308594 77.0625 271.929688 69.683594 262.886719 69.683594 C 253.84375 69.683594 246.464844 77.0625 246.464844 86.105469 C 246.464844 95.148438 253.84375 102.527344 262.886719 102.527344 L 267.402344 102.527344 L 267.402344 140.21875 L 223.472656 140.21875 L 223.472656 236.914062 C 227.894531 239.109375 230.933594 243.664062 230.933594 248.929688 C 230.9375 256.332031 224.929688 262.335938 217.527344 262.335938 Z M 282.960938 140.214844 L 282.960938 102.523438 L 279.308594 102.523438 L 279.308594 140.214844 Z M 267.402344 90.617188 L 267.402344 86.101562 C 267.402344 83.628906 265.355469 81.585938 262.886719 81.585938 C 260.414062 81.585938 258.371094 83.628906 258.371094 86.101562 C 258.371094 88.570312 260.414062 90.617188 262.886719 90.617188 Z M 294.863281 90.617188 L 299.378906 90.617188 C 301.851562 90.617188 303.894531 88.570312 303.894531 86.101562 C 303.894531 83.628906 301.851562 81.585938 299.378906 81.585938 C 296.90625 81.585938 294.863281 83.628906 294.863281 86.101562 Z M 130.878906 38.382812 C 136.386719 39.699219 141.648438 41.878906 146.46875 44.851562 L 156.601562 40.351562 L 168.542969 52.292969 L 164.042969 62.421875 C 167.011719 67.246094 169.199219 72.507812 170.507812 78.019531 L 180.84375 81.996094 L 180.84375 98.882812 L 170.503906 102.867188 C 169.191406 108.375 167.007812 113.636719 164.039062 118.457031 L 166.894531 124.886719 L 170.40625 124.886719 C 173.691406 124.886719 176.355469 127.550781 176.355469 130.839844 L 176.355469 241.148438 C 180.777344 243.34375 183.8125 247.898438 183.8125 253.164062 C 183.8125 260.570312 177.8125 266.574219 170.40625 266.574219 C 163 266.574219 156.996094 260.570312 156.996094 253.164062 C 156.996094 247.898438 160.03125 243.339844 164.453125 241.148438 L 164.453125 136.792969 L 160.335938 136.792969 L 156.597656 140.535156 L 148.175781 136.792969 L 145.191406 136.792969 C 142.324219 138.449219 139.316406 139.835938 136.199219 140.933594 L 136.910156 140.933594 C 140.195312 140.933594 142.859375 143.597656 142.859375 146.882812 L 142.859375 189.597656 C 147.28125 191.792969 150.316406 196.347656 150.316406 201.613281 C 150.316406 209.019531 144.316406 215.023438 136.910156 215.023438 C 129.503906 215.023438 123.5 209.019531 123.5 201.613281 C 123.5 196.347656 126.535156 191.789062 130.957031 189.597656 L 130.957031 152.835938 C 123.96875 152.835938 116.988281 152.835938 110 152.835938 L 106.019531 142.496094 C 100.511719 141.183594 95.246094 139 90.425781 136.03125 L 80.296875 140.53125 L 68.355469 128.589844 L 72.855469 118.457031 C 69.886719 113.632812 67.703125 108.371094 66.390625 102.863281 L 56.054688 98.882812 L 56.054688 81.996094 L 66.394531 78.019531 C 67.707031 72.507812 69.890625 67.246094 72.859375 62.421875 L 68.359375 52.292969 L 80.300781 40.351562 L 90.429688 44.851562 C 95.25 41.878906 100.515625 39.699219 106.023438 38.382812 L 110.003906 28.042969 L 126.894531 28.042969 Z M 118.453125 58.414062 C 100.761719 58.414062 86.425781 72.75 86.425781 90.441406 C 86.425781 108.132812 100.761719 122.472656 118.453125 122.472656 C 136.144531 122.472656 150.484375 108.132812 150.484375 90.441406 C 150.480469 72.75 136.144531 58.414062 118.453125 58.414062 Z M 287.085938 25.496094 C 287.085938 28.785156 284.421875 31.449219 281.132812 31.449219 C 277.847656 31.449219 275.183594 28.785156 275.183594 25.496094 L 275.183594 14.890625 C 275.183594 11.601562 277.847656 8.9375 281.132812 8.9375 C 284.421875 8.9375 287.085938 11.601562 287.085938 14.890625 Z M 320.246094 37.554688 L 325.550781 28.363281 C 327.179688 25.527344 326.203125 21.902344 323.367188 20.273438 C 320.527344 18.644531 316.902344 19.621094 315.273438 22.460938 L 309.96875 31.652344 C 308.339844 34.488281 309.316406 38.113281 312.15625 39.742188 C 314.992188 41.371094 318.617188 40.394531 320.246094 37.554688 Z M 342.953125 64.609375 C 340.117188 66.253906 336.480469 65.285156 334.839844 62.445312 C 333.195312 59.605469 334.164062 55.972656 337.003906 54.332031 L 346.191406 49.027344 C 349.03125 47.378906 352.667969 48.347656 354.308594 51.1875 C 355.953125 54.027344 354.984375 57.660156 352.144531 59.300781 Z M 225.265625 54.332031 L 216.074219 49.027344 C 213.238281 47.378906 209.601562 48.347656 207.960938 51.1875 C 206.316406 54.027344 207.285156 57.660156 210.125 59.300781 L 219.316406 64.609375 C 222.152344 66.253906 225.789062 65.285156 227.429688 62.445312 C 229.074219 59.609375 228.105469 55.976562 225.265625 54.332031 Z M 252.300781 31.628906 L 246.992188 22.4375 C 245.347656 19.597656 241.714844 18.628906 238.878906 20.273438 C 236.039062 21.917969 235.070312 25.554688 236.71875 28.386719 L 242.023438 37.578125 C 243.667969 40.417969 247.300781 41.386719 250.136719 39.742188 C 252.972656 38.097656 253.941406 34.460938 252.300781 31.628906 Z M 234.40625 353.199219 L 324.117188 353.984375 C 325.054688 354.125 325.789062 354.972656 325.78125 355.921875 C 325.730469 361.691406 325.671875 367.589844 325.617188 373.394531 C 325.476562 374.324219 324.625 375.066406 323.679688 375.058594 L 234.21875 374.289062 C 233.179688 374.28125 232.296875 373.375 232.304688 372.332031 L 232.46875 354.863281 C 232.609375 353.929688 233.457031 353.191406 234.40625 353.199219 Z M 250.996094 341.484375 L 250.929688 296.648438 C 250.898438 276.886719 254.414062 273.734375 268.558594 261.816406 C 278.566406 253.382812 291.292969 242.660156 301.832031 230.28125 C 305.566406 227.105469 311.128906 226.671875 314.746094 230.289062 C 318.796875 234.34375 317.878906 238.78125 314.6875 243.054688 C 306.757812 252.039062 297.925781 260.050781 289.46875 268.503906 C 287.144531 270.828125 287.144531 274.597656 289.46875 276.921875 C 291.796875 279.246094 295.5625 279.246094 297.886719 276.921875 C 308.257812 266.554688 319.03125 256.75 328.3125 245.332031 C 334.585938 237.605469 337.988281 228.898438 337.953125 218.890625 L 337.714844 157.070312 C 337.6875 149.347656 338.875 129.964844 350.121094 129.609375 C 354.976562 129.453125 361.257812 133.617188 361.40625 138.707031 L 364.628906 252.507812 C 364.882812 261.597656 361.726562 268.632812 355.480469 275.105469 L 303.996094 326.570312 C 302.703125 327.863281 302.132812 329.605469 302.277344 331.292969 L 302.277344 341.921875 Z M 247.667969 365.792969 C 248.757812 363.042969 247.417969 359.9375 244.667969 358.839844 C 241.925781 357.75 238.8125 359.089844 237.722656 361.839844 C 236.628906 364.585938 237.96875 367.695312 240.71875 368.789062 C 243.460938 369.882812 246.574219 368.542969 247.667969 365.792969 Z M 133.003906 339.976562 L 133.070312 295.144531 C 133.097656 275.976562 129.808594 272.417969 115.4375 260.3125 C 105.429688 251.875 92.703125 241.152344 82.167969 228.777344 C 78.429688 225.601562 72.871094 225.164062 69.253906 228.785156 C 65.199219 232.835938 65.882812 237.460938 69.3125 241.546875 C 77.011719 250.730469 86.074219 258.542969 94.527344 266.996094 C 96.851562 269.320312 96.851562 273.089844 94.527344 275.414062 C 92.203125 277.742188 88.433594 277.742188 86.109375 275.414062 C 75.742188 265.046875 64.964844 255.246094 55.683594 243.824219 C 49.410156 236.097656 46.007812 227.390625 46.046875 217.382812 L 46.28125 155.5625 C 46.308594 147.839844 45.125 128.457031 33.878906 128.101562 C 29.023438 127.949219 22.738281 132.109375 22.59375 137.199219 L 19.371094 251.003906 C 19.113281 260.085938 22.273438 267.128906 28.515625 273.601562 L 80.003906 325.066406 C 81.296875 326.359375 81.871094 328.097656 81.722656 329.785156 L 81.722656 340.414062 Z M 136.328125 364.285156 C 135.234375 361.539062 136.578125 358.429688 139.324219 357.335938 C 142.070312 356.242188 145.179688 357.585938 146.277344 360.332031 C 147.367188 363.082031 146.027344 366.1875 143.277344 367.285156 C 140.535156 368.375 137.421875 367.03125 136.328125 364.285156 Z M 136.328125 364.285156 " fill-opacity="1" fill-rule="evenodd"/></g></svg>