<svg xmlns="http://www.w3.org/2000/svg" xmlns:xlink="http://www.w3.org/1999/xlink" width="1000" zoomAndPan="magnify" viewBox="0 0 750 749.999995" height="1000" preserveAspectRatio="xMidYMid meet" version="1.0"><path stroke-linecap="butt" transform="matrix(0.75, 0, 0, 0.75, 254.99999, 210.139332)" fill="none" stroke-linejoin="miter" d="M 0.000013036 2.001724 L 320.000029 2.001724 " stroke="#e1ecee" stroke-width="4" stroke-opacity="1" stroke-miterlimit="4"/><path fill="#e1ecee" d="M 47.21875 193.425781 C 47.21875 192.316406 47.273438 191.207031 47.382812 190.105469 C 47.496094 189 47.65625 187.902344 47.875 186.8125 C 48.09375 185.726562 48.363281 184.648438 48.6875 183.585938 C 49.007812 182.523438 49.382812 181.480469 49.808594 180.457031 C 50.234375 179.429688 50.707031 178.429688 51.234375 177.449219 C 51.757812 176.46875 52.328125 175.519531 52.945312 174.597656 C 53.5625 173.671875 54.222656 172.78125 54.925781 171.925781 C 55.628906 171.066406 56.375 170.246094 57.160156 169.460938 C 57.945312 168.675781 58.765625 167.929688 59.625 167.226562 C 60.484375 166.519531 61.375 165.859375 62.296875 165.242188 C 63.21875 164.625 64.171875 164.054688 65.148438 163.53125 C 66.128906 163.007812 67.128906 162.535156 68.15625 162.109375 C 69.179688 161.683594 70.226562 161.308594 71.289062 160.984375 C 72.347656 160.664062 73.425781 160.394531 74.511719 160.175781 C 75.601562 159.957031 76.699219 159.792969 77.804688 159.683594 C 78.910156 159.574219 80.015625 159.519531 81.125 159.519531 L 668.871094 159.519531 C 669.984375 159.515625 671.09375 159.566406 672.199219 159.675781 C 673.308594 159.78125 674.40625 159.941406 675.496094 160.15625 C 676.589844 160.371094 677.667969 160.640625 678.730469 160.960938 C 679.796875 161.28125 680.84375 161.65625 681.871094 162.078125 C 682.898438 162.503906 683.902344 162.976562 684.882812 163.5 C 685.867188 164.023438 686.820312 164.589844 687.746094 165.207031 C 688.667969 165.824219 689.5625 166.484375 690.421875 167.1875 C 691.285156 167.894531 692.105469 168.640625 692.894531 169.425781 C 693.679688 170.210938 694.429688 171.03125 695.132812 171.890625 C 695.839844 172.75 696.503906 173.640625 697.121094 174.566406 C 697.738281 175.488281 698.3125 176.441406 698.835938 177.421875 C 699.363281 178.402344 699.835938 179.40625 700.261719 180.433594 C 700.6875 181.460938 701.0625 182.507812 701.386719 183.570312 C 701.710938 184.632812 701.980469 185.710938 702.199219 186.800781 C 702.414062 187.894531 702.578125 188.992188 702.6875 190.097656 C 702.796875 191.203125 702.851562 192.3125 702.851562 193.425781 C 702.851562 194.539062 702.796875 195.648438 702.6875 196.753906 C 702.578125 197.859375 702.414062 198.960938 702.199219 200.050781 C 701.980469 201.140625 701.710938 202.21875 701.386719 203.28125 C 701.0625 204.347656 700.6875 205.390625 700.261719 206.417969 C 699.835938 207.445312 699.363281 208.449219 698.835938 209.429688 C 698.3125 210.410156 697.738281 211.363281 697.121094 212.285156 C 696.503906 213.210938 695.839844 214.101562 695.132812 214.960938 C 694.429688 215.820312 693.679688 216.640625 692.894531 217.429688 C 692.105469 218.214844 691.285156 218.957031 690.421875 219.664062 C 689.5625 220.367188 688.667969 221.027344 687.746094 221.644531 C 686.820312 222.261719 685.867188 222.832031 684.882812 223.351562 C 683.902344 223.875 682.898438 224.347656 681.871094 224.773438 C 680.84375 225.199219 679.796875 225.570312 678.730469 225.890625 C 677.667969 226.210938 676.589844 226.480469 675.496094 226.695312 C 674.40625 226.910156 673.308594 227.070312 672.199219 227.175781 C 671.09375 227.285156 669.984375 227.335938 668.871094 227.335938 L 81.125 227.335938 C 80.015625 227.332031 78.910156 227.277344 77.804688 227.167969 C 76.699219 227.058594 75.601562 226.894531 74.511719 226.675781 C 73.425781 226.460938 72.347656 226.1875 71.289062 225.867188 C 70.226562 225.542969 69.179688 225.167969 68.15625 224.742188 C 67.128906 224.316406 66.128906 223.84375 65.148438 223.320312 C 64.171875 222.796875 63.21875 222.226562 62.296875 221.609375 C 61.375 220.992188 60.484375 220.332031 59.625 219.625 C 58.765625 218.921875 57.945312 218.175781 57.160156 217.390625 C 56.375 216.605469 55.628906 215.785156 54.925781 214.925781 C 54.222656 214.070312 53.5625 213.179688 52.945312 212.257812 C 52.328125 211.332031 51.757812 210.382812 51.234375 209.402344 C 50.707031 208.425781 50.234375 207.421875 49.808594 206.398438 C 49.382812 205.371094 49.007812 204.328125 48.6875 203.265625 C 48.363281 202.203125 48.09375 201.128906 47.875 200.039062 C 47.65625 198.949219 47.496094 197.851562 47.382812 196.75 C 47.273438 195.644531 47.21875 194.535156 47.21875 193.425781 Z M 668.871094 340.363281 L 81.125 340.363281 C 80.015625 340.363281 78.90625 340.417969 77.800781 340.527344 C 76.699219 340.632812 75.601562 340.796875 74.511719 341.015625 C 73.421875 341.230469 72.347656 341.5 71.28125 341.824219 C 70.21875 342.144531 69.175781 342.519531 68.148438 342.945312 C 67.125 343.367188 66.121094 343.84375 65.140625 344.367188 C 64.164062 344.890625 63.210938 345.460938 62.289062 346.078125 C 61.363281 346.695312 60.472656 347.355469 59.613281 348.058594 C 58.757812 348.765625 57.933594 349.507812 57.148438 350.292969 C 56.363281 351.078125 55.617188 351.902344 54.914062 352.757812 C 54.210938 353.617188 53.550781 354.507812 52.933594 355.433594 C 52.316406 356.355469 51.746094 357.308594 51.222656 358.285156 C 50.699219 359.265625 50.222656 360.269531 49.796875 361.292969 C 49.375 362.320312 49 363.363281 48.679688 364.429688 C 48.355469 365.492188 48.085938 366.566406 47.871094 367.65625 C 47.652344 368.746094 47.488281 369.84375 47.382812 370.949219 C 47.273438 372.050781 47.21875 373.160156 47.21875 374.269531 C 47.21875 375.382812 47.273438 376.488281 47.382812 377.59375 C 47.488281 378.699219 47.652344 379.796875 47.871094 380.886719 C 48.085938 381.976562 48.355469 383.050781 48.679688 384.113281 C 49 385.175781 49.375 386.222656 49.796875 387.246094 C 50.222656 388.273438 50.699219 389.277344 51.222656 390.253906 C 51.746094 391.234375 52.316406 392.1875 52.933594 393.109375 C 53.550781 394.03125 54.210938 394.925781 54.914062 395.78125 C 55.617188 396.640625 56.363281 397.460938 57.148438 398.246094 C 57.933594 399.03125 58.757812 399.777344 59.613281 400.484375 C 60.472656 401.1875 61.363281 401.847656 62.289062 402.464844 C 63.210938 403.082031 64.164062 403.652344 65.140625 404.175781 C 66.121094 404.699219 67.125 405.171875 68.148438 405.597656 C 69.175781 406.023438 70.21875 406.398438 71.28125 406.71875 C 72.347656 407.042969 73.421875 407.3125 74.511719 407.527344 C 75.601562 407.746094 76.699219 407.90625 77.800781 408.015625 C 78.90625 408.125 80.015625 408.179688 81.125 408.179688 L 668.871094 408.179688 C 669.984375 408.179688 671.089844 408.125 672.195312 408.015625 C 673.300781 407.90625 674.398438 407.746094 675.488281 407.527344 C 676.578125 407.3125 677.652344 407.042969 678.714844 406.71875 C 679.777344 406.398438 680.824219 406.023438 681.847656 405.597656 C 682.875 405.171875 683.878906 404.699219 684.855469 404.175781 C 685.835938 403.652344 686.789062 403.082031 687.710938 402.464844 C 688.632812 401.847656 689.523438 401.1875 690.382812 400.484375 C 691.242188 399.777344 692.0625 399.03125 692.847656 398.246094 C 693.632812 397.460938 694.378906 396.640625 695.082031 395.78125 C 695.789062 394.925781 696.449219 394.03125 697.066406 393.109375 C 697.683594 392.1875 698.253906 391.234375 698.777344 390.253906 C 699.300781 389.277344 699.773438 388.273438 700.199219 387.246094 C 700.625 386.222656 701 385.175781 701.320312 384.113281 C 701.644531 383.050781 701.914062 381.976562 702.128906 380.886719 C 702.34375 379.796875 702.507812 378.699219 702.617188 377.59375 C 702.726562 376.488281 702.78125 375.382812 702.78125 374.269531 C 702.78125 373.160156 702.726562 372.050781 702.617188 370.949219 C 702.507812 369.84375 702.34375 368.746094 702.128906 367.65625 C 701.914062 366.566406 701.644531 365.492188 701.320312 364.429688 C 701 363.363281 700.625 362.320312 700.199219 361.292969 C 699.773438 360.269531 699.300781 359.265625 698.777344 358.285156 C 698.253906 357.308594 697.683594 356.355469 697.066406 355.433594 C 696.449219 354.507812 695.789062 353.617188 695.082031 352.757812 C 694.378906 351.902344 693.632812 351.078125 692.847656 350.292969 C 692.0625 349.507812 691.242188 348.765625 690.382812 348.058594 C 689.523438 347.355469 688.632812 346.695312 687.710938 346.078125 C 686.789062 345.460938 685.835938 344.890625 684.855469 344.367188 C 683.878906 343.84375 682.875 343.367188 681.847656 342.945312 C 680.820312 342.519531 679.777344 342.144531 678.714844 341.824219 C 677.652344 341.5 676.578125 341.230469 675.488281 341.015625 C 674.398438 340.796875 673.300781 340.632812 672.195312 340.527344 C 671.089844 340.417969 669.984375 340.363281 668.871094 340.363281 Z M 668.871094 521.207031 L 81.125 521.207031 C 80.015625 521.207031 78.90625 521.257812 77.796875 521.363281 C 76.691406 521.472656 75.59375 521.632812 74.5 521.847656 C 73.410156 522.0625 72.332031 522.332031 71.269531 522.652344 C 70.203125 522.972656 69.15625 523.34375 68.128906 523.769531 C 67.101562 524.195312 66.097656 524.667969 65.117188 525.191406 C 64.132812 525.710938 63.179688 526.28125 62.253906 526.898438 C 61.332031 527.515625 60.4375 528.175781 59.578125 528.878906 C 58.71875 529.585938 57.894531 530.332031 57.105469 531.117188 C 56.320312 531.902344 55.574219 532.722656 54.867188 533.582031 C 54.160156 534.441406 53.5 535.332031 52.878906 536.257812 C 52.261719 537.179688 51.691406 538.132812 51.164062 539.113281 C 50.640625 540.09375 50.164062 541.097656 49.738281 542.125 C 49.3125 543.152344 48.9375 544.195312 48.613281 545.261719 C 48.292969 546.324219 48.023438 547.402344 47.804688 548.492188 C 47.585938 549.582031 47.425781 550.683594 47.316406 551.789062 C 47.207031 552.894531 47.152344 554.003906 47.152344 555.117188 C 47.152344 556.226562 47.207031 557.335938 47.316406 558.445312 C 47.425781 559.550781 47.585938 560.648438 47.804688 561.738281 C 48.023438 562.828125 48.292969 563.90625 48.613281 564.972656 C 48.9375 566.035156 49.3125 567.082031 49.738281 568.109375 C 50.164062 569.132812 50.640625 570.136719 51.164062 571.117188 C 51.691406 572.097656 52.261719 573.050781 52.878906 573.976562 C 53.5 574.898438 54.160156 575.789062 54.867188 576.648438 C 55.574219 577.507812 56.320312 578.332031 57.105469 579.117188 C 57.894531 579.902344 58.71875 580.648438 59.578125 581.351562 C 60.4375 582.054688 61.332031 582.714844 62.253906 583.332031 C 63.179688 583.949219 64.132812 584.519531 65.117188 585.042969 C 66.097656 585.566406 67.101562 586.039062 68.128906 586.460938 C 69.15625 586.886719 70.203125 587.257812 71.269531 587.578125 C 72.332031 587.902344 73.410156 588.167969 74.5 588.382812 C 75.59375 588.597656 76.691406 588.761719 77.796875 588.867188 C 78.90625 588.972656 80.015625 589.027344 81.125 589.023438 L 668.871094 589.023438 C 669.984375 589.027344 671.09375 588.972656 672.199219 588.867188 C 673.308594 588.761719 674.40625 588.597656 675.496094 588.382812 C 676.585938 588.167969 677.664062 587.902344 678.730469 587.578125 C 679.792969 587.257812 680.839844 586.886719 681.867188 586.460938 C 682.898438 586.039062 683.902344 585.566406 684.882812 585.042969 C 685.863281 584.519531 686.816406 583.949219 687.742188 583.332031 C 688.667969 582.714844 689.5625 582.054688 690.421875 581.351562 C 691.28125 580.648438 692.105469 579.902344 692.890625 579.117188 C 693.679688 578.332031 694.425781 577.507812 695.132812 576.648438 C 695.835938 575.789062 696.5 574.898438 697.117188 573.976562 C 697.738281 573.050781 698.308594 572.097656 698.832031 571.117188 C 699.359375 570.136719 699.832031 569.132812 700.257812 568.109375 C 700.683594 567.082031 701.058594 566.035156 701.382812 564.972656 C 701.707031 563.90625 701.976562 562.828125 702.195312 561.738281 C 702.410156 560.648438 702.574219 559.550781 702.683594 558.445312 C 702.792969 557.335938 702.847656 556.226562 702.847656 555.117188 C 702.847656 554.003906 702.792969 552.894531 702.683594 551.789062 C 702.574219 550.683594 702.410156 549.582031 702.195312 548.492188 C 701.976562 547.402344 701.707031 546.324219 701.382812 545.261719 C 701.058594 544.195312 700.683594 543.152344 700.257812 542.125 C 699.832031 541.097656 699.359375 540.09375 698.832031 539.113281 C 698.308594 538.132812 697.738281 537.179688 697.117188 536.257812 C 696.5 535.332031 695.835938 534.441406 695.132812 533.582031 C 694.425781 532.722656 693.679688 531.902344 692.890625 531.117188 C 692.105469 530.332031 691.28125 529.585938 690.421875 528.878906 C 689.5625 528.175781 688.667969 527.515625 687.742188 526.898438 C 686.816406 526.28125 685.863281 525.710938 684.882812 525.191406 C 683.902344 524.667969 682.898438 524.195312 681.867188 523.769531 C 680.839844 523.34375 679.792969 522.972656 678.730469 522.652344 C 677.664062 522.332031 676.585938 522.0625 675.496094 521.847656 C 674.40625 521.632812 673.308594 521.472656 672.199219 521.363281 C 671.09375 521.257812 669.984375 521.207031 668.871094 521.207031 Z M 668.871094 521.207031 " fill-opacity="1" fill-rule="nonzero"/></svg>