<svg xmlns="http://www.w3.org/2000/svg" xmlns:xlink="http://www.w3.org/1999/xlink" width="1920" zoomAndPan="magnify" viewBox="0 0 1440 809.999993" height="1080" preserveAspectRatio="xMidYMid meet" version="1.0"><defs><filter x="0%" y="0%" width="100%" height="100%" id="3abe4fbbb4"><feColorMatrix values="0 0 0 0 1 0 0 0 0 1 0 0 0 0 1 0 0 0 1 0" color-interpolation-filters="sRGB"/></filter><g/><mask id="312de8b790"><g filter="url(#3abe4fbbb4)"><rect x="-144" width="1728" fill="#000000" y="-80.999999" height="971.999992" fill-opacity="0.18"/></g></mask><mask id="ae68566695"><g filter="url(#3abe4fbbb4)"><rect x="-316.8" width="2073.6" fill="#000000" y="-178.199998" height="1166.39999" fill-opacity="0.11"/></g></mask><clipPath id="8c8800aaa4"><path d="M 0 60 L 13 60 L 13 202 L 0 202 Z M 0 60 " clip-rule="nonzero"/></clipPath><clipPath id="e9b58c1700"><rect x="0" width="725" y="0" height="252"/></clipPath><mask id="0500354f60"><g filter="url(#3abe4fbbb4)"><rect x="-316.8" width="2073.6" fill="#000000" y="-178.199998" height="1166.39999" fill-opacity="0.11"/></g></mask><clipPath id="d83f894b0c"><path d="M 699 59 L 720 59 L 720 202 L 699 202 Z M 699 59 " clip-rule="nonzero"/></clipPath><clipPath id="a9334e4c0a"><rect x="0" width="720" y="0" height="252"/></clipPath><mask id="5b37381660"><g filter="url(#3abe4fbbb4)"><rect x="-316.8" width="2073.6" fill="#000000" y="-178.199998" height="1166.39999" fill-opacity="0.11"/></g></mask><clipPath id="a019be58a0"><path d="M 0 75 L 20 75 L 20 216 L 0 216 Z M 0 75 " clip-rule="nonzero"/></clipPath><clipPath id="1515d259e2"><rect x="0" width="307" y="0" height="267"/></clipPath><mask id="e01a2cb31b"><g filter="url(#3abe4fbbb4)"><rect x="-316.8" width="2073.6" fill="#000000" y="-178.199998" height="1166.39999" fill-opacity="0.11"/></g></mask><clipPath id="663dbc00e4"><rect x="0" width="841" y="0" height="267"/></clipPath><mask id="4b46bc3084"><g filter="url(#3abe4fbbb4)"><rect x="-316.8" width="2073.6" fill="#000000" y="-178.199998" height="1166.39999" fill-opacity="0.11"/></g></mask><clipPath id="44332af8b4"><path d="M 268 72 L 303 72 L 303 219 L 268 219 Z M 268 72 " clip-rule="nonzero"/></clipPath><clipPath id="67506443d5"><rect x="0" width="303" y="0" height="267"/></clipPath><clipPath id="a1c29a977c"><path d="M 0 463 L 668 463 L 668 728.878906 L 0 728.878906 Z M 0 463 " clip-rule="nonzero"/></clipPath><mask id="7519924bfb"><g filter="url(#3abe4fbbb4)"><rect x="-316.8" width="2073.6" fill="#000000" y="-178.199998" height="1166.39999" fill-opacity="0.11"/></g></mask><clipPath id="c5e33dae5d"><path d="M 0 74 L 78 74 L 78 216 L 0 216 Z M 0 74 " clip-rule="nonzero"/></clipPath><clipPath id="273b45c7ee"><rect x="0" width="668" y="0" height="266"/></clipPath><clipPath id="0cb00da71c"><path d="M 662 463 L 1440 463 L 1440 728.878906 L 662 728.878906 Z M 662 463 " clip-rule="nonzero"/></clipPath><mask id="f08e0b844b"><g filter="url(#3abe4fbbb4)"><rect x="-316.8" width="2073.6" fill="#000000" y="-178.199998" height="1166.39999" fill-opacity="0.11"/></g></mask><clipPath id="fa8cf60014"><path d="M 700 74 L 778 74 L 778 216 L 700 216 Z M 700 74 " clip-rule="nonzero"/></clipPath><clipPath id="0b732531ac"><rect x="0" width="778" y="0" height="266"/></clipPath><clipPath id="00f2b5e496"><rect x="0" width="1440" y="0" height="729"/></clipPath></defs><rect x="-144" width="1728" fill="#ffffff" y="-80.999999" height="971.999992" fill-opacity="1"/><rect x="-144" width="1728" fill="#020d10" y="-80.999999" height="971.999992" fill-opacity="1"/><g mask="url(#312de8b790)"><g transform="matrix(1, 0, 0, 1, 0, 0.000000000000039746)"><g clip-path="url(#00f2b5e496)"><g mask="url(#ae68566695)"><g transform="matrix(1, 0, 0, 1, 0, 0.000000000000039746)"><g clip-path="url(#e9b58c1700)"><g clip-path="url(#8c8800aaa4)"><g fill="#ffffff" fill-opacity="1"><g transform="translate(-115.379813, 201.341185)"><g><path d="M 127.8125 -140.953125 C 127.28125 -134.179688 126.914062 -127.675781 126.71875 -121.4375 C 126.519531 -115.207031 126.421875 -110.429688 126.421875 -107.109375 C 126.421875 -104.191406 126.488281 -101.40625 126.625 -98.75 C 126.757812 -96.09375 126.890625 -93.835938 127.015625 -91.984375 L 122.4375 -91.984375 C 120.3125 -103.128906 117.625 -111.953125 114.375 -118.453125 C 111.125 -124.960938 107.242188 -129.578125 102.734375 -132.296875 C 98.222656 -135.015625 92.914062 -136.375 86.8125 -136.375 L 82.21875 -136.375 L 82.21875 -22.703125 C 82.21875 -17.390625 82.78125 -13.40625 83.90625 -10.75 C 85.039062 -8.09375 87.132812 -6.332031 90.1875 -5.46875 C 93.238281 -4.613281 97.6875 -4.117188 103.53125 -3.984375 L 103.53125 0 C 99.414062 -0.132812 93.9375 -0.265625 87.09375 -0.390625 C 80.257812 -0.523438 73.128906 -0.59375 65.703125 -0.59375 C 58.398438 -0.59375 51.492188 -0.523438 44.984375 -0.390625 C 38.484375 -0.265625 33.242188 -0.132812 29.265625 0 L 29.265625 -3.984375 C 35.234375 -4.117188 39.742188 -4.613281 42.796875 -5.46875 C 45.859375 -6.332031 47.914062 -8.09375 48.96875 -10.75 C 50.03125 -13.40625 50.5625 -17.390625 50.5625 -22.703125 L 50.5625 -136.375 L 46.1875 -136.375 C 40.082031 -136.375 34.773438 -135.015625 30.265625 -132.296875 C 25.753906 -129.578125 21.90625 -125 18.71875 -118.5625 C 15.53125 -112.125 12.742188 -103.265625 10.359375 -91.984375 L 5.78125 -91.984375 C 6.039062 -93.835938 6.203125 -96.09375 6.265625 -98.75 C 6.335938 -101.40625 6.375 -104.191406 6.375 -107.109375 C 6.375 -110.429688 6.273438 -115.207031 6.078125 -121.4375 C 5.878906 -127.675781 5.515625 -134.179688 4.984375 -140.953125 C 11.085938 -140.828125 17.753906 -140.695312 24.984375 -140.5625 C 32.222656 -140.425781 39.488281 -140.359375 46.78125 -140.359375 C 54.082031 -140.359375 60.65625 -140.359375 66.5 -140.359375 C 72.46875 -140.359375 79.066406 -140.359375 86.296875 -140.359375 C 93.535156 -140.359375 100.804688 -140.425781 108.109375 -140.5625 C 115.410156 -140.695312 121.976562 -140.828125 127.8125 -140.953125 Z M 127.8125 -140.953125 "/></g></g></g></g><g fill="#ffffff" fill-opacity="1"><g transform="translate(17.610391, 201.341185)"><g><path d="M 113.28125 -140.953125 C 112.75 -135.117188 112.382812 -129.476562 112.1875 -124.03125 C 111.988281 -118.59375 111.890625 -114.414062 111.890625 -111.5 C 111.890625 -108.84375 111.953125 -106.316406 112.078125 -103.921875 C 112.210938 -101.535156 112.347656 -99.546875 112.484375 -97.953125 L 107.90625 -97.953125 C 106.582031 -107.640625 104.523438 -115.300781 101.734375 -120.9375 C 98.953125 -126.582031 95.335938 -130.566406 90.890625 -132.890625 C 86.441406 -135.210938 81.226562 -136.375 75.25 -136.375 L 67.09375 -136.375 C 63.25 -136.375 60.328125 -136.039062 58.328125 -135.375 C 56.335938 -134.71875 55.007812 -133.394531 54.34375 -131.40625 C 53.6875 -129.414062 53.359375 -126.363281 53.359375 -122.25 L 53.359375 -18.71875 C 53.359375 -14.601562 53.6875 -11.546875 54.34375 -9.546875 C 55.007812 -7.554688 56.335938 -6.226562 58.328125 -5.5625 C 60.328125 -4.90625 63.25 -4.578125 67.09375 -4.578125 L 76.84375 -4.578125 C 82.820312 -4.578125 88.097656 -5.867188 92.671875 -8.453125 C 97.253906 -11.046875 101.171875 -15.460938 104.421875 -21.703125 C 107.671875 -27.941406 110.160156 -36.367188 111.890625 -46.984375 L 116.46875 -46.984375 C 116.070312 -42.734375 115.875 -37.160156 115.875 -30.265625 C 115.875 -27.210938 115.9375 -22.894531 116.0625 -17.3125 C 116.195312 -11.738281 116.597656 -5.96875 117.265625 0 C 110.492188 -0.257812 102.859375 -0.421875 94.359375 -0.484375 C 85.867188 -0.554688 78.304688 -0.59375 71.671875 -0.59375 C 68.359375 -0.59375 64.113281 -0.59375 58.9375 -0.59375 C 53.757812 -0.59375 48.179688 -0.554688 42.203125 -0.484375 C 36.234375 -0.421875 30.195312 -0.359375 24.09375 -0.296875 C 17.988281 -0.234375 12.210938 -0.132812 6.765625 0 L 6.765625 -3.984375 C 11.015625 -4.242188 14.203125 -4.769531 16.328125 -5.5625 C 18.453125 -6.363281 19.878906 -7.957031 20.609375 -10.34375 C 21.335938 -12.738281 21.703125 -16.328125 21.703125 -21.109375 L 21.703125 -119.859375 C 21.703125 -124.765625 21.335938 -128.378906 20.609375 -130.703125 C 19.878906 -133.023438 18.414062 -134.617188 16.21875 -135.484375 C 14.03125 -136.347656 10.878906 -136.84375 6.765625 -136.96875 L 6.765625 -140.953125 C 12.210938 -140.828125 17.988281 -140.726562 24.09375 -140.65625 C 30.195312 -140.59375 36.234375 -140.523438 42.203125 -140.453125 C 48.179688 -140.390625 53.757812 -140.359375 58.9375 -140.359375 C 64.113281 -140.359375 68.359375 -140.359375 71.671875 -140.359375 C 77.773438 -140.359375 84.707031 -140.390625 92.46875 -140.453125 C 100.238281 -140.523438 107.175781 -140.691406 113.28125 -140.953125 Z M 82.21875 -72.875 C 82.21875 -72.875 82.21875 -72.207031 82.21875 -70.875 C 82.21875 -69.550781 82.21875 -68.890625 82.21875 -68.890625 L 47.390625 -68.890625 C 47.390625 -68.890625 47.390625 -69.550781 47.390625 -70.875 C 47.390625 -72.207031 47.390625 -72.875 47.390625 -72.875 Z M 88 -99.15625 C 87.46875 -91.582031 87.234375 -85.804688 87.296875 -81.828125 C 87.367188 -77.847656 87.40625 -74.195312 87.40625 -70.875 C 87.40625 -67.5625 87.46875 -63.910156 87.59375 -59.921875 C 87.726562 -55.941406 88.0625 -50.171875 88.59375 -42.609375 L 84.015625 -42.609375 C 83.347656 -47.253906 82.117188 -51.566406 80.328125 -55.546875 C 78.535156 -59.523438 75.976562 -62.742188 72.65625 -65.203125 C 69.34375 -67.660156 65.035156 -68.890625 59.734375 -68.890625 L 59.734375 -72.875 C 63.710938 -72.875 67.09375 -73.703125 69.875 -75.359375 C 72.664062 -77.015625 74.957031 -79.203125 76.75 -81.921875 C 78.539062 -84.648438 79.96875 -87.539062 81.03125 -90.59375 C 82.09375 -93.644531 82.890625 -96.5 83.421875 -99.15625 Z M 88 -99.15625 "/></g></g></g><g fill="#ffffff" fill-opacity="1"><g transform="translate(143.831642, 201.341185)"><g><path d="M 79.046875 -143.75 C 87.804688 -143.75 95.003906 -142.453125 100.640625 -139.859375 C 106.285156 -137.273438 111.296875 -134.253906 115.671875 -130.796875 C 118.328125 -128.804688 120.351562 -128.570312 121.75 -130.09375 C 123.144531 -131.625 124.101562 -135.242188 124.625 -140.953125 L 129.21875 -140.953125 C 128.945312 -135.773438 128.742188 -129.503906 128.609375 -122.140625 C 128.484375 -114.773438 128.421875 -104.988281 128.421875 -92.78125 L 123.84375 -92.78125 C 123.175781 -98.882812 122.3125 -104.09375 121.25 -108.40625 C 120.1875 -112.71875 118.722656 -116.53125 116.859375 -119.84375 C 115.003906 -123.164062 112.351562 -126.15625 108.90625 -128.8125 C 105.582031 -132.132812 101.726562 -134.585938 97.34375 -136.171875 C 92.96875 -137.765625 88.394531 -138.5625 83.625 -138.5625 C 76.457031 -138.5625 70.347656 -136.671875 65.296875 -132.890625 C 60.253906 -129.109375 56.171875 -123.960938 53.046875 -117.453125 C 49.929688 -110.953125 47.644531 -103.617188 46.1875 -95.453125 C 44.726562 -87.296875 44 -78.835938 44 -70.078125 C 44 -61.179688 44.757812 -52.648438 46.28125 -44.484375 C 47.8125 -36.328125 50.203125 -29.0625 53.453125 -22.6875 C 56.703125 -16.320312 60.914062 -11.28125 66.09375 -7.5625 C 71.269531 -3.84375 77.378906 -1.984375 84.421875 -1.984375 C 88.796875 -1.984375 93.207031 -2.8125 97.65625 -4.46875 C 102.101562 -6.132812 105.921875 -8.5625 109.109375 -11.75 C 114.285156 -15.726562 117.800781 -20.671875 119.65625 -26.578125 C 121.507812 -32.484375 122.90625 -40.347656 123.84375 -50.171875 L 128.421875 -50.171875 C 128.421875 -37.554688 128.484375 -27.367188 128.609375 -19.609375 C 128.742188 -11.847656 128.945312 -5.3125 129.21875 0 L 124.625 0 C 124.101562 -5.707031 123.207031 -9.289062 121.9375 -10.75 C 120.675781 -12.207031 118.585938 -12.007812 115.671875 -10.15625 C 110.765625 -6.707031 105.554688 -3.6875 100.046875 -1.09375 C 94.535156 1.488281 87.46875 2.78125 78.84375 2.78125 C 64.769531 2.78125 52.457031 -0.0664062 41.90625 -5.765625 C 31.351562 -11.472656 23.15625 -19.703125 17.3125 -30.453125 C 11.476562 -41.210938 8.5625 -54.15625 8.5625 -69.28125 C 8.5625 -84.144531 11.578125 -97.148438 17.609375 -108.296875 C 23.648438 -119.453125 31.945312 -128.148438 42.5 -134.390625 C 53.050781 -140.628906 65.234375 -143.75 79.046875 -143.75 Z M 79.046875 -143.75 "/></g></g></g><g fill="#ffffff" fill-opacity="1"><g transform="translate(284.188067, 201.341185)"><g><path d="M 91.1875 0 L 91.1875 -3.984375 C 95.4375 -4.242188 98.617188 -4.769531 100.734375 -5.5625 C 102.859375 -6.363281 104.285156 -7.957031 105.015625 -10.34375 C 105.742188 -12.738281 106.109375 -16.328125 106.109375 -21.109375 L 106.109375 -119.859375 C 106.109375 -124.765625 105.742188 -128.378906 105.015625 -130.703125 C 104.285156 -133.023438 102.828125 -134.617188 100.640625 -135.484375 C 98.453125 -136.347656 95.300781 -136.84375 91.1875 -136.96875 L 91.1875 -140.953125 C 94.769531 -140.828125 99.445312 -140.695312 105.21875 -140.5625 C 110.988281 -140.425781 116.726562 -140.359375 122.4375 -140.359375 C 128.539062 -140.359375 134.28125 -140.425781 139.65625 -140.5625 C 145.039062 -140.695312 149.390625 -140.828125 152.703125 -140.953125 L 152.703125 -136.96875 C 148.453125 -136.84375 145.234375 -136.347656 143.046875 -135.484375 C 140.859375 -134.617188 139.429688 -133.023438 138.765625 -130.703125 C 138.097656 -128.378906 137.765625 -124.765625 137.765625 -119.859375 L 137.765625 -21.109375 C 137.765625 -16.328125 138.128906 -12.738281 138.859375 -10.34375 C 139.597656 -7.957031 141.023438 -6.363281 143.140625 -5.5625 C 145.265625 -4.769531 148.453125 -4.242188 152.703125 -3.984375 L 152.703125 0 C 149.390625 -0.257812 145.039062 -0.421875 139.65625 -0.484375 C 134.28125 -0.554688 128.539062 -0.59375 122.4375 -0.59375 C 116.726562 -0.59375 110.988281 -0.554688 105.21875 -0.484375 C 99.445312 -0.421875 94.769531 -0.257812 91.1875 0 Z M 6.765625 0 L 6.765625 -3.984375 C 11.015625 -4.242188 14.203125 -4.769531 16.328125 -5.5625 C 18.453125 -6.363281 19.878906 -7.957031 20.609375 -10.34375 C 21.335938 -12.738281 21.703125 -16.328125 21.703125 -21.109375 L 21.703125 -119.859375 C 21.703125 -124.765625 21.335938 -128.378906 20.609375 -130.703125 C 19.878906 -133.023438 18.414062 -134.617188 16.21875 -135.484375 C 14.03125 -136.347656 10.878906 -136.84375 6.765625 -136.96875 L 6.765625 -140.953125 C 10.222656 -140.828125 14.703125 -140.695312 20.203125 -140.5625 C 25.710938 -140.425781 31.71875 -140.359375 38.21875 -140.359375 C 43.800781 -140.359375 49.3125 -140.425781 54.75 -140.5625 C 60.1875 -140.695312 64.703125 -140.828125 68.296875 -140.953125 L 68.296875 -136.96875 C 64.046875 -136.84375 60.820312 -136.347656 58.625 -135.484375 C 56.4375 -134.617188 55.007812 -133.023438 54.34375 -130.703125 C 53.6875 -128.378906 53.359375 -124.765625 53.359375 -119.859375 L 53.359375 -21.109375 C 53.359375 -16.328125 53.722656 -12.738281 54.453125 -10.34375 C 55.179688 -7.957031 56.609375 -6.363281 58.734375 -5.5625 C 60.859375 -4.769531 64.046875 -4.242188 68.296875 -3.984375 L 68.296875 0 C 64.703125 -0.257812 60.1875 -0.421875 54.75 -0.484375 C 49.3125 -0.554688 43.800781 -0.59375 38.21875 -0.59375 C 31.71875 -0.59375 25.710938 -0.554688 20.203125 -0.484375 C 14.703125 -0.421875 10.222656 -0.257812 6.765625 0 Z M 40.421875 -68.890625 L 40.421875 -72.875 L 119.0625 -72.875 L 119.0625 -68.890625 Z M 40.421875 -68.890625 "/></g></g></g><g fill="#ffffff" fill-opacity="1"><g transform="translate(443.457819, 201.341185)"><g><path d="M 137.96875 -140.953125 L 137.96875 -136.96875 C 133.71875 -136.445312 130.53125 -135.351562 128.40625 -133.6875 C 126.289062 -132.03125 124.867188 -129.410156 124.140625 -125.828125 C 123.410156 -122.242188 123.046875 -117.203125 123.046875 -110.703125 L 123.046875 0.390625 C 121.453125 0.265625 119.820312 0.203125 118.15625 0.203125 C 116.5 0.203125 114.742188 0.265625 112.890625 0.390625 L 26.484375 -109.109375 L 26.484375 -32.65625 C 26.484375 -25.351562 26.878906 -19.742188 27.671875 -15.828125 C 28.472656 -11.910156 30.234375 -9.125 32.953125 -7.46875 C 35.671875 -5.8125 39.953125 -4.648438 45.796875 -3.984375 L 45.796875 0 C 43.273438 -0.257812 39.957031 -0.421875 35.84375 -0.484375 C 31.726562 -0.554688 27.878906 -0.59375 24.296875 -0.59375 C 21.234375 -0.59375 18.109375 -0.554688 14.921875 -0.484375 C 11.742188 -0.421875 9.09375 -0.257812 6.96875 0 L 6.96875 -3.984375 C 11.21875 -4.648438 14.398438 -5.773438 16.515625 -7.359375 C 18.640625 -8.953125 20.066406 -11.570312 20.796875 -15.21875 C 21.535156 -18.875 21.90625 -23.890625 21.90625 -30.265625 L 21.90625 -119.859375 C 21.90625 -124.765625 21.535156 -128.378906 20.796875 -130.703125 C 20.066406 -133.023438 18.609375 -134.617188 16.421875 -135.484375 C 14.234375 -136.347656 11.082031 -136.84375 6.96875 -136.96875 L 6.96875 -140.953125 C 9.09375 -140.828125 11.742188 -140.695312 14.921875 -140.5625 C 18.109375 -140.425781 21.234375 -140.359375 24.296875 -140.359375 C 27.472656 -140.359375 30.519531 -140.425781 33.4375 -140.5625 C 36.363281 -140.695312 39.019531 -140.828125 41.40625 -140.953125 L 118.453125 -45.984375 L 118.453125 -108.3125 C 118.453125 -115.601562 118.054688 -121.207031 117.265625 -125.125 C 116.472656 -129.039062 114.710938 -131.863281 111.984375 -133.59375 C 109.265625 -135.320312 104.988281 -136.445312 99.15625 -136.96875 L 99.15625 -140.953125 C 101.675781 -140.828125 104.992188 -140.695312 109.109375 -140.5625 C 113.222656 -140.425781 117.070312 -140.359375 120.65625 -140.359375 C 123.832031 -140.359375 126.976562 -140.425781 130.09375 -140.5625 C 133.21875 -140.695312 135.84375 -140.828125 137.96875 -140.953125 Z M 137.96875 -140.953125 "/></g></g></g><g fill="#ffffff" fill-opacity="1"><g transform="translate(587.198717, 201.341185)"><g><path d="M 73.265625 -141.359375 L 121.640625 -16.71875 C 123.503906 -11.945312 125.597656 -8.664062 127.921875 -6.875 C 130.242188 -5.082031 132.332031 -4.117188 134.1875 -3.984375 L 134.1875 0 C 130.207031 -0.257812 125.53125 -0.421875 120.15625 -0.484375 C 114.78125 -0.554688 109.367188 -0.59375 103.921875 -0.59375 C 97.816406 -0.59375 92.039062 -0.554688 86.59375 -0.484375 C 81.15625 -0.421875 76.847656 -0.257812 73.671875 0 L 73.671875 -3.984375 C 80.429688 -4.242188 84.707031 -5.398438 86.5 -7.453125 C 88.289062 -9.515625 87.863281 -13.929688 85.21875 -20.703125 L 51.359375 -113.28125 L 54.953125 -118.453125 L 24.6875 -39.625 C 21.769531 -32.320312 20.007812 -26.347656 19.40625 -21.703125 C 18.8125 -17.054688 19.144531 -13.472656 20.40625 -10.953125 C 21.664062 -8.429688 23.722656 -6.671875 26.578125 -5.671875 C 29.429688 -4.679688 32.847656 -4.117188 36.828125 -3.984375 L 36.828125 0 C 32.453125 -0.257812 28.269531 -0.421875 24.28125 -0.484375 C 20.300781 -0.554688 16.253906 -0.59375 12.140625 -0.59375 C 9.222656 -0.59375 6.46875 -0.554688 3.875 -0.484375 C 1.289062 -0.421875 -0.992188 -0.257812 -2.984375 0 L -2.984375 -3.984375 C -0.203125 -4.515625 2.644531 -6.304688 5.5625 -9.359375 C 8.488281 -12.410156 11.347656 -17.585938 14.140625 -24.890625 L 59.53125 -141.359375 C 61.65625 -141.222656 63.941406 -141.15625 66.390625 -141.15625 C 68.847656 -141.15625 71.140625 -141.222656 73.265625 -141.359375 Z M 87.203125 -57.34375 L 87.203125 -53.359375 L 27.875 -53.359375 L 29.859375 -57.34375 Z M 87.203125 -57.34375 "/></g></g></g></g></g></g><g mask="url(#0500354f60)"><g transform="matrix(1, 0, 0, 1, 720, 0.000000000000039746)"><g clip-path="url(#a9334e4c0a)"><g fill="#ffffff" fill-opacity="1"><g transform="translate(0.0000285937, 201.341185)"><g><path d="M 127.8125 -140.953125 C 127.28125 -134.179688 126.914062 -127.675781 126.71875 -121.4375 C 126.519531 -115.207031 126.421875 -110.429688 126.421875 -107.109375 C 126.421875 -104.191406 126.488281 -101.40625 126.625 -98.75 C 126.757812 -96.09375 126.890625 -93.835938 127.015625 -91.984375 L 122.4375 -91.984375 C 120.3125 -103.128906 117.625 -111.953125 114.375 -118.453125 C 111.125 -124.960938 107.242188 -129.578125 102.734375 -132.296875 C 98.222656 -135.015625 92.914062 -136.375 86.8125 -136.375 L 82.21875 -136.375 L 82.21875 -22.703125 C 82.21875 -17.390625 82.78125 -13.40625 83.90625 -10.75 C 85.039062 -8.09375 87.132812 -6.332031 90.1875 -5.46875 C 93.238281 -4.613281 97.6875 -4.117188 103.53125 -3.984375 L 103.53125 0 C 99.414062 -0.132812 93.9375 -0.265625 87.09375 -0.390625 C 80.257812 -0.523438 73.128906 -0.59375 65.703125 -0.59375 C 58.398438 -0.59375 51.492188 -0.523438 44.984375 -0.390625 C 38.484375 -0.265625 33.242188 -0.132812 29.265625 0 L 29.265625 -3.984375 C 35.234375 -4.117188 39.742188 -4.613281 42.796875 -5.46875 C 45.859375 -6.332031 47.914062 -8.09375 48.96875 -10.75 C 50.03125 -13.40625 50.5625 -17.390625 50.5625 -22.703125 L 50.5625 -136.375 L 46.1875 -136.375 C 40.082031 -136.375 34.773438 -135.015625 30.265625 -132.296875 C 25.753906 -129.578125 21.90625 -125 18.71875 -118.5625 C 15.53125 -112.125 12.742188 -103.265625 10.359375 -91.984375 L 5.78125 -91.984375 C 6.039062 -93.835938 6.203125 -96.09375 6.265625 -98.75 C 6.335938 -101.40625 6.375 -104.191406 6.375 -107.109375 C 6.375 -110.429688 6.273438 -115.207031 6.078125 -121.4375 C 5.878906 -127.675781 5.515625 -134.179688 4.984375 -140.953125 C 11.085938 -140.828125 17.753906 -140.695312 24.984375 -140.5625 C 32.222656 -140.425781 39.488281 -140.359375 46.78125 -140.359375 C 54.082031 -140.359375 60.65625 -140.359375 66.5 -140.359375 C 72.46875 -140.359375 79.066406 -140.359375 86.296875 -140.359375 C 93.535156 -140.359375 100.804688 -140.425781 108.109375 -140.5625 C 115.410156 -140.695312 121.976562 -140.828125 127.8125 -140.953125 Z M 127.8125 -140.953125 "/></g></g></g><g fill="#ffffff" fill-opacity="1"><g transform="translate(132.990232, 201.341185)"><g><path d="M 113.28125 -140.953125 C 112.75 -135.117188 112.382812 -129.476562 112.1875 -124.03125 C 111.988281 -118.59375 111.890625 -114.414062 111.890625 -111.5 C 111.890625 -108.84375 111.953125 -106.316406 112.078125 -103.921875 C 112.210938 -101.535156 112.347656 -99.546875 112.484375 -97.953125 L 107.90625 -97.953125 C 106.582031 -107.640625 104.523438 -115.300781 101.734375 -120.9375 C 98.953125 -126.582031 95.335938 -130.566406 90.890625 -132.890625 C 86.441406 -135.210938 81.226562 -136.375 75.25 -136.375 L 67.09375 -136.375 C 63.25 -136.375 60.328125 -136.039062 58.328125 -135.375 C 56.335938 -134.71875 55.007812 -133.394531 54.34375 -131.40625 C 53.6875 -129.414062 53.359375 -126.363281 53.359375 -122.25 L 53.359375 -18.71875 C 53.359375 -14.601562 53.6875 -11.546875 54.34375 -9.546875 C 55.007812 -7.554688 56.335938 -6.226562 58.328125 -5.5625 C 60.328125 -4.90625 63.25 -4.578125 67.09375 -4.578125 L 76.84375 -4.578125 C 82.820312 -4.578125 88.097656 -5.867188 92.671875 -8.453125 C 97.253906 -11.046875 101.171875 -15.460938 104.421875 -21.703125 C 107.671875 -27.941406 110.160156 -36.367188 111.890625 -46.984375 L 116.46875 -46.984375 C 116.070312 -42.734375 115.875 -37.160156 115.875 -30.265625 C 115.875 -27.210938 115.9375 -22.894531 116.0625 -17.3125 C 116.195312 -11.738281 116.597656 -5.96875 117.265625 0 C 110.492188 -0.257812 102.859375 -0.421875 94.359375 -0.484375 C 85.867188 -0.554688 78.304688 -0.59375 71.671875 -0.59375 C 68.359375 -0.59375 64.113281 -0.59375 58.9375 -0.59375 C 53.757812 -0.59375 48.179688 -0.554688 42.203125 -0.484375 C 36.234375 -0.421875 30.195312 -0.359375 24.09375 -0.296875 C 17.988281 -0.234375 12.210938 -0.132812 6.765625 0 L 6.765625 -3.984375 C 11.015625 -4.242188 14.203125 -4.769531 16.328125 -5.5625 C 18.453125 -6.363281 19.878906 -7.957031 20.609375 -10.34375 C 21.335938 -12.738281 21.703125 -16.328125 21.703125 -21.109375 L 21.703125 -119.859375 C 21.703125 -124.765625 21.335938 -128.378906 20.609375 -130.703125 C 19.878906 -133.023438 18.414062 -134.617188 16.21875 -135.484375 C 14.03125 -136.347656 10.878906 -136.84375 6.765625 -136.96875 L 6.765625 -140.953125 C 12.210938 -140.828125 17.988281 -140.726562 24.09375 -140.65625 C 30.195312 -140.59375 36.234375 -140.523438 42.203125 -140.453125 C 48.179688 -140.390625 53.757812 -140.359375 58.9375 -140.359375 C 64.113281 -140.359375 68.359375 -140.359375 71.671875 -140.359375 C 77.773438 -140.359375 84.707031 -140.390625 92.46875 -140.453125 C 100.238281 -140.523438 107.175781 -140.691406 113.28125 -140.953125 Z M 82.21875 -72.875 C 82.21875 -72.875 82.21875 -72.207031 82.21875 -70.875 C 82.21875 -69.550781 82.21875 -68.890625 82.21875 -68.890625 L 47.390625 -68.890625 C 47.390625 -68.890625 47.390625 -69.550781 47.390625 -70.875 C 47.390625 -72.207031 47.390625 -72.875 47.390625 -72.875 Z M 88 -99.15625 C 87.46875 -91.582031 87.234375 -85.804688 87.296875 -81.828125 C 87.367188 -77.847656 87.40625 -74.195312 87.40625 -70.875 C 87.40625 -67.5625 87.46875 -63.910156 87.59375 -59.921875 C 87.726562 -55.941406 88.0625 -50.171875 88.59375 -42.609375 L 84.015625 -42.609375 C 83.347656 -47.253906 82.117188 -51.566406 80.328125 -55.546875 C 78.535156 -59.523438 75.976562 -62.742188 72.65625 -65.203125 C 69.34375 -67.660156 65.035156 -68.890625 59.734375 -68.890625 L 59.734375 -72.875 C 63.710938 -72.875 67.09375 -73.703125 69.875 -75.359375 C 72.664062 -77.015625 74.957031 -79.203125 76.75 -81.921875 C 78.539062 -84.648438 79.96875 -87.539062 81.03125 -90.59375 C 82.09375 -93.644531 82.890625 -96.5 83.421875 -99.15625 Z M 88 -99.15625 "/></g></g></g><g fill="#ffffff" fill-opacity="1"><g transform="translate(259.211483, 201.341185)"><g><path d="M 79.046875 -143.75 C 87.804688 -143.75 95.003906 -142.453125 100.640625 -139.859375 C 106.285156 -137.273438 111.296875 -134.253906 115.671875 -130.796875 C 118.328125 -128.804688 120.351562 -128.570312 121.75 -130.09375 C 123.144531 -131.625 124.101562 -135.242188 124.625 -140.953125 L 129.21875 -140.953125 C 128.945312 -135.773438 128.742188 -129.503906 128.609375 -122.140625 C 128.484375 -114.773438 128.421875 -104.988281 128.421875 -92.78125 L 123.84375 -92.78125 C 123.175781 -98.882812 122.3125 -104.09375 121.25 -108.40625 C 120.1875 -112.71875 118.722656 -116.53125 116.859375 -119.84375 C 115.003906 -123.164062 112.351562 -126.15625 108.90625 -128.8125 C 105.582031 -132.132812 101.726562 -134.585938 97.34375 -136.171875 C 92.96875 -137.765625 88.394531 -138.5625 83.625 -138.5625 C 76.457031 -138.5625 70.347656 -136.671875 65.296875 -132.890625 C 60.253906 -129.109375 56.171875 -123.960938 53.046875 -117.453125 C 49.929688 -110.953125 47.644531 -103.617188 46.1875 -95.453125 C 44.726562 -87.296875 44 -78.835938 44 -70.078125 C 44 -61.179688 44.757812 -52.648438 46.28125 -44.484375 C 47.8125 -36.328125 50.203125 -29.0625 53.453125 -22.6875 C 56.703125 -16.320312 60.914062 -11.28125 66.09375 -7.5625 C 71.269531 -3.84375 77.378906 -1.984375 84.421875 -1.984375 C 88.796875 -1.984375 93.207031 -2.8125 97.65625 -4.46875 C 102.101562 -6.132812 105.921875 -8.5625 109.109375 -11.75 C 114.285156 -15.726562 117.800781 -20.671875 119.65625 -26.578125 C 121.507812 -32.484375 122.90625 -40.347656 123.84375 -50.171875 L 128.421875 -50.171875 C 128.421875 -37.554688 128.484375 -27.367188 128.609375 -19.609375 C 128.742188 -11.847656 128.945312 -5.3125 129.21875 0 L 124.625 0 C 124.101562 -5.707031 123.207031 -9.289062 121.9375 -10.75 C 120.675781 -12.207031 118.585938 -12.007812 115.671875 -10.15625 C 110.765625 -6.707031 105.554688 -3.6875 100.046875 -1.09375 C 94.535156 1.488281 87.46875 2.78125 78.84375 2.78125 C 64.769531 2.78125 52.457031 -0.0664062 41.90625 -5.765625 C 31.351562 -11.472656 23.15625 -19.703125 17.3125 -30.453125 C 11.476562 -41.210938 8.5625 -54.15625 8.5625 -69.28125 C 8.5625 -84.144531 11.578125 -97.148438 17.609375 -108.296875 C 23.648438 -119.453125 31.945312 -128.148438 42.5 -134.390625 C 53.050781 -140.628906 65.234375 -143.75 79.046875 -143.75 Z M 79.046875 -143.75 "/></g></g></g><g fill="#ffffff" fill-opacity="1"><g transform="translate(399.567908, 201.341185)"><g><path d="M 91.1875 0 L 91.1875 -3.984375 C 95.4375 -4.242188 98.617188 -4.769531 100.734375 -5.5625 C 102.859375 -6.363281 104.285156 -7.957031 105.015625 -10.34375 C 105.742188 -12.738281 106.109375 -16.328125 106.109375 -21.109375 L 106.109375 -119.859375 C 106.109375 -124.765625 105.742188 -128.378906 105.015625 -130.703125 C 104.285156 -133.023438 102.828125 -134.617188 100.640625 -135.484375 C 98.453125 -136.347656 95.300781 -136.84375 91.1875 -136.96875 L 91.1875 -140.953125 C 94.769531 -140.828125 99.445312 -140.695312 105.21875 -140.5625 C 110.988281 -140.425781 116.726562 -140.359375 122.4375 -140.359375 C 128.539062 -140.359375 134.28125 -140.425781 139.65625 -140.5625 C 145.039062 -140.695312 149.390625 -140.828125 152.703125 -140.953125 L 152.703125 -136.96875 C 148.453125 -136.84375 145.234375 -136.347656 143.046875 -135.484375 C 140.859375 -134.617188 139.429688 -133.023438 138.765625 -130.703125 C 138.097656 -128.378906 137.765625 -124.765625 137.765625 -119.859375 L 137.765625 -21.109375 C 137.765625 -16.328125 138.128906 -12.738281 138.859375 -10.34375 C 139.597656 -7.957031 141.023438 -6.363281 143.140625 -5.5625 C 145.265625 -4.769531 148.453125 -4.242188 152.703125 -3.984375 L 152.703125 0 C 149.390625 -0.257812 145.039062 -0.421875 139.65625 -0.484375 C 134.28125 -0.554688 128.539062 -0.59375 122.4375 -0.59375 C 116.726562 -0.59375 110.988281 -0.554688 105.21875 -0.484375 C 99.445312 -0.421875 94.769531 -0.257812 91.1875 0 Z M 6.765625 0 L 6.765625 -3.984375 C 11.015625 -4.242188 14.203125 -4.769531 16.328125 -5.5625 C 18.453125 -6.363281 19.878906 -7.957031 20.609375 -10.34375 C 21.335938 -12.738281 21.703125 -16.328125 21.703125 -21.109375 L 21.703125 -119.859375 C 21.703125 -124.765625 21.335938 -128.378906 20.609375 -130.703125 C 19.878906 -133.023438 18.414062 -134.617188 16.21875 -135.484375 C 14.03125 -136.347656 10.878906 -136.84375 6.765625 -136.96875 L 6.765625 -140.953125 C 10.222656 -140.828125 14.703125 -140.695312 20.203125 -140.5625 C 25.710938 -140.425781 31.71875 -140.359375 38.21875 -140.359375 C 43.800781 -140.359375 49.3125 -140.425781 54.75 -140.5625 C 60.1875 -140.695312 64.703125 -140.828125 68.296875 -140.953125 L 68.296875 -136.96875 C 64.046875 -136.84375 60.820312 -136.347656 58.625 -135.484375 C 56.4375 -134.617188 55.007812 -133.023438 54.34375 -130.703125 C 53.6875 -128.378906 53.359375 -124.765625 53.359375 -119.859375 L 53.359375 -21.109375 C 53.359375 -16.328125 53.722656 -12.738281 54.453125 -10.34375 C 55.179688 -7.957031 56.609375 -6.363281 58.734375 -5.5625 C 60.859375 -4.769531 64.046875 -4.242188 68.296875 -3.984375 L 68.296875 0 C 64.703125 -0.257812 60.1875 -0.421875 54.75 -0.484375 C 49.3125 -0.554688 43.800781 -0.59375 38.21875 -0.59375 C 31.71875 -0.59375 25.710938 -0.554688 20.203125 -0.484375 C 14.703125 -0.421875 10.222656 -0.257812 6.765625 0 Z M 40.421875 -68.890625 L 40.421875 -72.875 L 119.0625 -72.875 L 119.0625 -68.890625 Z M 40.421875 -68.890625 "/></g></g></g><g fill="#ffffff" fill-opacity="1"><g transform="translate(558.83766, 201.341185)"><g><path d="M 137.96875 -140.953125 L 137.96875 -136.96875 C 133.71875 -136.445312 130.53125 -135.351562 128.40625 -133.6875 C 126.289062 -132.03125 124.867188 -129.410156 124.140625 -125.828125 C 123.410156 -122.242188 123.046875 -117.203125 123.046875 -110.703125 L 123.046875 0.390625 C 121.453125 0.265625 119.820312 0.203125 118.15625 0.203125 C 116.5 0.203125 114.742188 0.265625 112.890625 0.390625 L 26.484375 -109.109375 L 26.484375 -32.65625 C 26.484375 -25.351562 26.878906 -19.742188 27.671875 -15.828125 C 28.472656 -11.910156 30.234375 -9.125 32.953125 -7.46875 C 35.671875 -5.8125 39.953125 -4.648438 45.796875 -3.984375 L 45.796875 0 C 43.273438 -0.257812 39.957031 -0.421875 35.84375 -0.484375 C 31.726562 -0.554688 27.878906 -0.59375 24.296875 -0.59375 C 21.234375 -0.59375 18.109375 -0.554688 14.921875 -0.484375 C 11.742188 -0.421875 9.09375 -0.257812 6.96875 0 L 6.96875 -3.984375 C 11.21875 -4.648438 14.398438 -5.773438 16.515625 -7.359375 C 18.640625 -8.953125 20.066406 -11.570312 20.796875 -15.21875 C 21.535156 -18.875 21.90625 -23.890625 21.90625 -30.265625 L 21.90625 -119.859375 C 21.90625 -124.765625 21.535156 -128.378906 20.796875 -130.703125 C 20.066406 -133.023438 18.609375 -134.617188 16.421875 -135.484375 C 14.234375 -136.347656 11.082031 -136.84375 6.96875 -136.96875 L 6.96875 -140.953125 C 9.09375 -140.828125 11.742188 -140.695312 14.921875 -140.5625 C 18.109375 -140.425781 21.234375 -140.359375 24.296875 -140.359375 C 27.472656 -140.359375 30.519531 -140.425781 33.4375 -140.5625 C 36.363281 -140.695312 39.019531 -140.828125 41.40625 -140.953125 L 118.453125 -45.984375 L 118.453125 -108.3125 C 118.453125 -115.601562 118.054688 -121.207031 117.265625 -125.125 C 116.472656 -129.039062 114.710938 -131.863281 111.984375 -133.59375 C 109.265625 -135.320312 104.988281 -136.445312 99.15625 -136.96875 L 99.15625 -140.953125 C 101.675781 -140.828125 104.992188 -140.695312 109.109375 -140.5625 C 113.222656 -140.425781 117.070312 -140.359375 120.65625 -140.359375 C 123.832031 -140.359375 126.976562 -140.425781 130.09375 -140.5625 C 133.21875 -140.695312 135.84375 -140.828125 137.96875 -140.953125 Z M 137.96875 -140.953125 "/></g></g></g><g clip-path="url(#d83f894b0c)"><g fill="#ffffff" fill-opacity="1"><g transform="translate(702.578558, 201.341185)"><g><path d="M 73.265625 -141.359375 L 121.640625 -16.71875 C 123.503906 -11.945312 125.597656 -8.664062 127.921875 -6.875 C 130.242188 -5.082031 132.332031 -4.117188 134.1875 -3.984375 L 134.1875 0 C 130.207031 -0.257812 125.53125 -0.421875 120.15625 -0.484375 C 114.78125 -0.554688 109.367188 -0.59375 103.921875 -0.59375 C 97.816406 -0.59375 92.039062 -0.554688 86.59375 -0.484375 C 81.15625 -0.421875 76.847656 -0.257812 73.671875 0 L 73.671875 -3.984375 C 80.429688 -4.242188 84.707031 -5.398438 86.5 -7.453125 C 88.289062 -9.515625 87.863281 -13.929688 85.21875 -20.703125 L 51.359375 -113.28125 L 54.953125 -118.453125 L 24.6875 -39.625 C 21.769531 -32.320312 20.007812 -26.347656 19.40625 -21.703125 C 18.8125 -17.054688 19.144531 -13.472656 20.40625 -10.953125 C 21.664062 -8.429688 23.722656 -6.671875 26.578125 -5.671875 C 29.429688 -4.679688 32.847656 -4.117188 36.828125 -3.984375 L 36.828125 0 C 32.453125 -0.257812 28.269531 -0.421875 24.28125 -0.484375 C 20.300781 -0.554688 16.253906 -0.59375 12.140625 -0.59375 C 9.222656 -0.59375 6.46875 -0.554688 3.875 -0.484375 C 1.289062 -0.421875 -0.992188 -0.257812 -2.984375 0 L -2.984375 -3.984375 C -0.203125 -4.515625 2.644531 -6.304688 5.5625 -9.359375 C 8.488281 -12.410156 11.347656 -17.585938 14.140625 -24.890625 L 59.53125 -141.359375 C 61.65625 -141.222656 63.941406 -141.15625 66.390625 -141.15625 C 68.847656 -141.15625 71.140625 -141.222656 73.265625 -141.359375 Z M 87.203125 -57.34375 L 87.203125 -53.359375 L 27.875 -53.359375 L 29.859375 -57.34375 Z M 87.203125 -57.34375 "/></g></g></g></g></g></g></g><g mask="url(#5b37381660)"><g transform="matrix(1, 0, 0, 1, 0, 224)"><g clip-path="url(#1515d259e2)"><g clip-path="url(#a019be58a0)"><g fill="#ffffff" fill-opacity="1"><g transform="translate(-133.501799, 215.967019)"><g><path d="M 91.1875 0 L 91.1875 -3.984375 C 95.4375 -4.242188 98.617188 -4.769531 100.734375 -5.5625 C 102.859375 -6.363281 104.285156 -7.957031 105.015625 -10.34375 C 105.742188 -12.738281 106.109375 -16.328125 106.109375 -21.109375 L 106.109375 -119.859375 C 106.109375 -124.765625 105.742188 -128.378906 105.015625 -130.703125 C 104.285156 -133.023438 102.828125 -134.617188 100.640625 -135.484375 C 98.453125 -136.347656 95.300781 -136.84375 91.1875 -136.96875 L 91.1875 -140.953125 C 94.769531 -140.828125 99.445312 -140.695312 105.21875 -140.5625 C 110.988281 -140.425781 116.726562 -140.359375 122.4375 -140.359375 C 128.539062 -140.359375 134.28125 -140.425781 139.65625 -140.5625 C 145.039062 -140.695312 149.390625 -140.828125 152.703125 -140.953125 L 152.703125 -136.96875 C 148.453125 -136.84375 145.234375 -136.347656 143.046875 -135.484375 C 140.859375 -134.617188 139.429688 -133.023438 138.765625 -130.703125 C 138.097656 -128.378906 137.765625 -124.765625 137.765625 -119.859375 L 137.765625 -21.109375 C 137.765625 -16.328125 138.128906 -12.738281 138.859375 -10.34375 C 139.597656 -7.957031 141.023438 -6.363281 143.140625 -5.5625 C 145.265625 -4.769531 148.453125 -4.242188 152.703125 -3.984375 L 152.703125 0 C 149.390625 -0.257812 145.039062 -0.421875 139.65625 -0.484375 C 134.28125 -0.554688 128.539062 -0.59375 122.4375 -0.59375 C 116.726562 -0.59375 110.988281 -0.554688 105.21875 -0.484375 C 99.445312 -0.421875 94.769531 -0.257812 91.1875 0 Z M 6.765625 0 L 6.765625 -3.984375 C 11.015625 -4.242188 14.203125 -4.769531 16.328125 -5.5625 C 18.453125 -6.363281 19.878906 -7.957031 20.609375 -10.34375 C 21.335938 -12.738281 21.703125 -16.328125 21.703125 -21.109375 L 21.703125 -119.859375 C 21.703125 -124.765625 21.335938 -128.378906 20.609375 -130.703125 C 19.878906 -133.023438 18.414062 -134.617188 16.21875 -135.484375 C 14.03125 -136.347656 10.878906 -136.84375 6.765625 -136.96875 L 6.765625 -140.953125 C 10.222656 -140.828125 14.703125 -140.695312 20.203125 -140.5625 C 25.710938 -140.425781 31.71875 -140.359375 38.21875 -140.359375 C 43.800781 -140.359375 49.3125 -140.425781 54.75 -140.5625 C 60.1875 -140.695312 64.703125 -140.828125 68.296875 -140.953125 L 68.296875 -136.96875 C 64.046875 -136.84375 60.820312 -136.347656 58.625 -135.484375 C 56.4375 -134.617188 55.007812 -133.023438 54.34375 -130.703125 C 53.6875 -128.378906 53.359375 -124.765625 53.359375 -119.859375 L 53.359375 -21.109375 C 53.359375 -16.328125 53.722656 -12.738281 54.453125 -10.34375 C 55.179688 -7.957031 56.609375 -6.363281 58.734375 -5.5625 C 60.859375 -4.769531 64.046875 -4.242188 68.296875 -3.984375 L 68.296875 0 C 64.703125 -0.257812 60.1875 -0.421875 54.75 -0.484375 C 49.3125 -0.554688 43.800781 -0.59375 38.21875 -0.59375 C 31.71875 -0.59375 25.710938 -0.554688 20.203125 -0.484375 C 14.703125 -0.421875 10.222656 -0.257812 6.765625 0 Z M 40.421875 -68.890625 L 40.421875 -72.875 L 119.0625 -72.875 L 119.0625 -68.890625 Z M 40.421875 -68.890625 "/></g></g></g></g><g fill="#ffffff" fill-opacity="1"><g transform="translate(25.767953, 215.967019)"><g><path d="M 137.96875 -140.953125 L 137.96875 -136.96875 C 133.71875 -136.445312 130.53125 -135.351562 128.40625 -133.6875 C 126.289062 -132.03125 124.867188 -129.410156 124.140625 -125.828125 C 123.410156 -122.242188 123.046875 -117.203125 123.046875 -110.703125 L 123.046875 0.390625 C 121.453125 0.265625 119.820312 0.203125 118.15625 0.203125 C 116.5 0.203125 114.742188 0.265625 112.890625 0.390625 L 26.484375 -109.109375 L 26.484375 -32.65625 C 26.484375 -25.351562 26.878906 -19.742188 27.671875 -15.828125 C 28.472656 -11.910156 30.234375 -9.125 32.953125 -7.46875 C 35.671875 -5.8125 39.953125 -4.648438 45.796875 -3.984375 L 45.796875 0 C 43.273438 -0.257812 39.957031 -0.421875 35.84375 -0.484375 C 31.726562 -0.554688 27.878906 -0.59375 24.296875 -0.59375 C 21.234375 -0.59375 18.109375 -0.554688 14.921875 -0.484375 C 11.742188 -0.421875 9.09375 -0.257812 6.96875 0 L 6.96875 -3.984375 C 11.21875 -4.648438 14.398438 -5.773438 16.515625 -7.359375 C 18.640625 -8.953125 20.066406 -11.570312 20.796875 -15.21875 C 21.535156 -18.875 21.90625 -23.890625 21.90625 -30.265625 L 21.90625 -119.859375 C 21.90625 -124.765625 21.535156 -128.378906 20.796875 -130.703125 C 20.066406 -133.023438 18.609375 -134.617188 16.421875 -135.484375 C 14.234375 -136.347656 11.082031 -136.84375 6.96875 -136.96875 L 6.96875 -140.953125 C 9.09375 -140.828125 11.742188 -140.695312 14.921875 -140.5625 C 18.109375 -140.425781 21.234375 -140.359375 24.296875 -140.359375 C 27.472656 -140.359375 30.519531 -140.425781 33.4375 -140.5625 C 36.363281 -140.695312 39.019531 -140.828125 41.40625 -140.953125 L 118.453125 -45.984375 L 118.453125 -108.3125 C 118.453125 -115.601562 118.054688 -121.207031 117.265625 -125.125 C 116.472656 -129.039062 114.710938 -131.863281 111.984375 -133.59375 C 109.265625 -135.320312 104.988281 -136.445312 99.15625 -136.96875 L 99.15625 -140.953125 C 101.675781 -140.828125 104.992188 -140.695312 109.109375 -140.5625 C 113.222656 -140.425781 117.070312 -140.359375 120.65625 -140.359375 C 123.832031 -140.359375 126.976562 -140.425781 130.09375 -140.5625 C 133.21875 -140.695312 135.84375 -140.828125 137.96875 -140.953125 Z M 137.96875 -140.953125 "/></g></g></g><g fill="#ffffff" fill-opacity="1"><g transform="translate(169.508851, 215.967019)"><g><path d="M 73.265625 -141.359375 L 121.640625 -16.71875 C 123.503906 -11.945312 125.597656 -8.664062 127.921875 -6.875 C 130.242188 -5.082031 132.332031 -4.117188 134.1875 -3.984375 L 134.1875 0 C 130.207031 -0.257812 125.53125 -0.421875 120.15625 -0.484375 C 114.78125 -0.554688 109.367188 -0.59375 103.921875 -0.59375 C 97.816406 -0.59375 92.039062 -0.554688 86.59375 -0.484375 C 81.15625 -0.421875 76.847656 -0.257812 73.671875 0 L 73.671875 -3.984375 C 80.429688 -4.242188 84.707031 -5.398438 86.5 -7.453125 C 88.289062 -9.515625 87.863281 -13.929688 85.21875 -20.703125 L 51.359375 -113.28125 L 54.953125 -118.453125 L 24.6875 -39.625 C 21.769531 -32.320312 20.007812 -26.347656 19.40625 -21.703125 C 18.8125 -17.054688 19.144531 -13.472656 20.40625 -10.953125 C 21.664062 -8.429688 23.722656 -6.671875 26.578125 -5.671875 C 29.429688 -4.679688 32.847656 -4.117188 36.828125 -3.984375 L 36.828125 0 C 32.453125 -0.257812 28.269531 -0.421875 24.28125 -0.484375 C 20.300781 -0.554688 16.253906 -0.59375 12.140625 -0.59375 C 9.222656 -0.59375 6.46875 -0.554688 3.875 -0.484375 C 1.289062 -0.421875 -0.992188 -0.257812 -2.984375 0 L -2.984375 -3.984375 C -0.203125 -4.515625 2.644531 -6.304688 5.5625 -9.359375 C 8.488281 -12.410156 11.347656 -17.585938 14.140625 -24.890625 L 59.53125 -141.359375 C 61.65625 -141.222656 63.941406 -141.15625 66.390625 -141.15625 C 68.847656 -141.15625 71.140625 -141.222656 73.265625 -141.359375 Z M 87.203125 -57.34375 L 87.203125 -53.359375 L 27.875 -53.359375 L 29.859375 -57.34375 Z M 87.203125 -57.34375 "/></g></g></g></g></g></g><g mask="url(#e01a2cb31b)"><g transform="matrix(1, 0, 0, 1, 302, 224)"><g clip-path="url(#663dbc00e4)"><g fill="#ffffff" fill-opacity="1"><g transform="translate(0.31005, 215.967019)"><g><path d="M 127.8125 -140.953125 C 127.28125 -134.179688 126.914062 -127.675781 126.71875 -121.4375 C 126.519531 -115.207031 126.421875 -110.429688 126.421875 -107.109375 C 126.421875 -104.191406 126.488281 -101.40625 126.625 -98.75 C 126.757812 -96.09375 126.890625 -93.835938 127.015625 -91.984375 L 122.4375 -91.984375 C 120.3125 -103.128906 117.625 -111.953125 114.375 -118.453125 C 111.125 -124.960938 107.242188 -129.578125 102.734375 -132.296875 C 98.222656 -135.015625 92.914062 -136.375 86.8125 -136.375 L 82.21875 -136.375 L 82.21875 -22.703125 C 82.21875 -17.390625 82.78125 -13.40625 83.90625 -10.75 C 85.039062 -8.09375 87.132812 -6.332031 90.1875 -5.46875 C 93.238281 -4.613281 97.6875 -4.117188 103.53125 -3.984375 L 103.53125 0 C 99.414062 -0.132812 93.9375 -0.265625 87.09375 -0.390625 C 80.257812 -0.523438 73.128906 -0.59375 65.703125 -0.59375 C 58.398438 -0.59375 51.492188 -0.523438 44.984375 -0.390625 C 38.484375 -0.265625 33.242188 -0.132812 29.265625 0 L 29.265625 -3.984375 C 35.234375 -4.117188 39.742188 -4.613281 42.796875 -5.46875 C 45.859375 -6.332031 47.914062 -8.09375 48.96875 -10.75 C 50.03125 -13.40625 50.5625 -17.390625 50.5625 -22.703125 L 50.5625 -136.375 L 46.1875 -136.375 C 40.082031 -136.375 34.773438 -135.015625 30.265625 -132.296875 C 25.753906 -129.578125 21.90625 -125 18.71875 -118.5625 C 15.53125 -112.125 12.742188 -103.265625 10.359375 -91.984375 L 5.78125 -91.984375 C 6.039062 -93.835938 6.203125 -96.09375 6.265625 -98.75 C 6.335938 -101.40625 6.375 -104.191406 6.375 -107.109375 C 6.375 -110.429688 6.273438 -115.207031 6.078125 -121.4375 C 5.878906 -127.675781 5.515625 -134.179688 4.984375 -140.953125 C 11.085938 -140.828125 17.753906 -140.695312 24.984375 -140.5625 C 32.222656 -140.425781 39.488281 -140.359375 46.78125 -140.359375 C 54.082031 -140.359375 60.65625 -140.359375 66.5 -140.359375 C 72.46875 -140.359375 79.066406 -140.359375 86.296875 -140.359375 C 93.535156 -140.359375 100.804688 -140.425781 108.109375 -140.5625 C 115.410156 -140.695312 121.976562 -140.828125 127.8125 -140.953125 Z M 127.8125 -140.953125 "/></g></g></g><g fill="#ffffff" fill-opacity="1"><g transform="translate(133.300253, 215.967019)"><g><path d="M 113.28125 -140.953125 C 112.75 -135.117188 112.382812 -129.476562 112.1875 -124.03125 C 111.988281 -118.59375 111.890625 -114.414062 111.890625 -111.5 C 111.890625 -108.84375 111.953125 -106.316406 112.078125 -103.921875 C 112.210938 -101.535156 112.347656 -99.546875 112.484375 -97.953125 L 107.90625 -97.953125 C 106.582031 -107.640625 104.523438 -115.300781 101.734375 -120.9375 C 98.953125 -126.582031 95.335938 -130.566406 90.890625 -132.890625 C 86.441406 -135.210938 81.226562 -136.375 75.25 -136.375 L 67.09375 -136.375 C 63.25 -136.375 60.328125 -136.039062 58.328125 -135.375 C 56.335938 -134.71875 55.007812 -133.394531 54.34375 -131.40625 C 53.6875 -129.414062 53.359375 -126.363281 53.359375 -122.25 L 53.359375 -18.71875 C 53.359375 -14.601562 53.6875 -11.546875 54.34375 -9.546875 C 55.007812 -7.554688 56.335938 -6.226562 58.328125 -5.5625 C 60.328125 -4.90625 63.25 -4.578125 67.09375 -4.578125 L 76.84375 -4.578125 C 82.820312 -4.578125 88.097656 -5.867188 92.671875 -8.453125 C 97.253906 -11.046875 101.171875 -15.460938 104.421875 -21.703125 C 107.671875 -27.941406 110.160156 -36.367188 111.890625 -46.984375 L 116.46875 -46.984375 C 116.070312 -42.734375 115.875 -37.160156 115.875 -30.265625 C 115.875 -27.210938 115.9375 -22.894531 116.0625 -17.3125 C 116.195312 -11.738281 116.597656 -5.96875 117.265625 0 C 110.492188 -0.257812 102.859375 -0.421875 94.359375 -0.484375 C 85.867188 -0.554688 78.304688 -0.59375 71.671875 -0.59375 C 68.359375 -0.59375 64.113281 -0.59375 58.9375 -0.59375 C 53.757812 -0.59375 48.179688 -0.554688 42.203125 -0.484375 C 36.234375 -0.421875 30.195312 -0.359375 24.09375 -0.296875 C 17.988281 -0.234375 12.210938 -0.132812 6.765625 0 L 6.765625 -3.984375 C 11.015625 -4.242188 14.203125 -4.769531 16.328125 -5.5625 C 18.453125 -6.363281 19.878906 -7.957031 20.609375 -10.34375 C 21.335938 -12.738281 21.703125 -16.328125 21.703125 -21.109375 L 21.703125 -119.859375 C 21.703125 -124.765625 21.335938 -128.378906 20.609375 -130.703125 C 19.878906 -133.023438 18.414062 -134.617188 16.21875 -135.484375 C 14.03125 -136.347656 10.878906 -136.84375 6.765625 -136.96875 L 6.765625 -140.953125 C 12.210938 -140.828125 17.988281 -140.726562 24.09375 -140.65625 C 30.195312 -140.59375 36.234375 -140.523438 42.203125 -140.453125 C 48.179688 -140.390625 53.757812 -140.359375 58.9375 -140.359375 C 64.113281 -140.359375 68.359375 -140.359375 71.671875 -140.359375 C 77.773438 -140.359375 84.707031 -140.390625 92.46875 -140.453125 C 100.238281 -140.523438 107.175781 -140.691406 113.28125 -140.953125 Z M 82.21875 -72.875 C 82.21875 -72.875 82.21875 -72.207031 82.21875 -70.875 C 82.21875 -69.550781 82.21875 -68.890625 82.21875 -68.890625 L 47.390625 -68.890625 C 47.390625 -68.890625 47.390625 -69.550781 47.390625 -70.875 C 47.390625 -72.207031 47.390625 -72.875 47.390625 -72.875 Z M 88 -99.15625 C 87.46875 -91.582031 87.234375 -85.804688 87.296875 -81.828125 C 87.367188 -77.847656 87.40625 -74.195312 87.40625 -70.875 C 87.40625 -67.5625 87.46875 -63.910156 87.59375 -59.921875 C 87.726562 -55.941406 88.0625 -50.171875 88.59375 -42.609375 L 84.015625 -42.609375 C 83.347656 -47.253906 82.117188 -51.566406 80.328125 -55.546875 C 78.535156 -59.523438 75.976562 -62.742188 72.65625 -65.203125 C 69.34375 -67.660156 65.035156 -68.890625 59.734375 -68.890625 L 59.734375 -72.875 C 63.710938 -72.875 67.09375 -73.703125 69.875 -75.359375 C 72.664062 -77.015625 74.957031 -79.203125 76.75 -81.921875 C 78.539062 -84.648438 79.96875 -87.539062 81.03125 -90.59375 C 82.09375 -93.644531 82.890625 -96.5 83.421875 -99.15625 Z M 88 -99.15625 "/></g></g></g><g fill="#ffffff" fill-opacity="1"><g transform="translate(259.521504, 215.967019)"><g><path d="M 79.046875 -143.75 C 87.804688 -143.75 95.003906 -142.453125 100.640625 -139.859375 C 106.285156 -137.273438 111.296875 -134.253906 115.671875 -130.796875 C 118.328125 -128.804688 120.351562 -128.570312 121.75 -130.09375 C 123.144531 -131.625 124.101562 -135.242188 124.625 -140.953125 L 129.21875 -140.953125 C 128.945312 -135.773438 128.742188 -129.503906 128.609375 -122.140625 C 128.484375 -114.773438 128.421875 -104.988281 128.421875 -92.78125 L 123.84375 -92.78125 C 123.175781 -98.882812 122.3125 -104.09375 121.25 -108.40625 C 120.1875 -112.71875 118.722656 -116.53125 116.859375 -119.84375 C 115.003906 -123.164062 112.351562 -126.15625 108.90625 -128.8125 C 105.582031 -132.132812 101.726562 -134.585938 97.34375 -136.171875 C 92.96875 -137.765625 88.394531 -138.5625 83.625 -138.5625 C 76.457031 -138.5625 70.347656 -136.671875 65.296875 -132.890625 C 60.253906 -129.109375 56.171875 -123.960938 53.046875 -117.453125 C 49.929688 -110.953125 47.644531 -103.617188 46.1875 -95.453125 C 44.726562 -87.296875 44 -78.835938 44 -70.078125 C 44 -61.179688 44.757812 -52.648438 46.28125 -44.484375 C 47.8125 -36.328125 50.203125 -29.0625 53.453125 -22.6875 C 56.703125 -16.320312 60.914062 -11.28125 66.09375 -7.5625 C 71.269531 -3.84375 77.378906 -1.984375 84.421875 -1.984375 C 88.796875 -1.984375 93.207031 -2.8125 97.65625 -4.46875 C 102.101562 -6.132812 105.921875 -8.5625 109.109375 -11.75 C 114.285156 -15.726562 117.800781 -20.671875 119.65625 -26.578125 C 121.507812 -32.484375 122.90625 -40.347656 123.84375 -50.171875 L 128.421875 -50.171875 C 128.421875 -37.554688 128.484375 -27.367188 128.609375 -19.609375 C 128.742188 -11.847656 128.945312 -5.3125 129.21875 0 L 124.625 0 C 124.101562 -5.707031 123.207031 -9.289062 121.9375 -10.75 C 120.675781 -12.207031 118.585938 -12.007812 115.671875 -10.15625 C 110.765625 -6.707031 105.554688 -3.6875 100.046875 -1.09375 C 94.535156 1.488281 87.46875 2.78125 78.84375 2.78125 C 64.769531 2.78125 52.457031 -0.0664062 41.90625 -5.765625 C 31.351562 -11.472656 23.15625 -19.703125 17.3125 -30.453125 C 11.476562 -41.210938 8.5625 -54.15625 8.5625 -69.28125 C 8.5625 -84.144531 11.578125 -97.148438 17.609375 -108.296875 C 23.648438 -119.453125 31.945312 -128.148438 42.5 -134.390625 C 53.050781 -140.628906 65.234375 -143.75 79.046875 -143.75 Z M 79.046875 -143.75 "/></g></g></g><g fill="#ffffff" fill-opacity="1"><g transform="translate(399.87793, 215.967019)"><g><path d="M 91.1875 0 L 91.1875 -3.984375 C 95.4375 -4.242188 98.617188 -4.769531 100.734375 -5.5625 C 102.859375 -6.363281 104.285156 -7.957031 105.015625 -10.34375 C 105.742188 -12.738281 106.109375 -16.328125 106.109375 -21.109375 L 106.109375 -119.859375 C 106.109375 -124.765625 105.742188 -128.378906 105.015625 -130.703125 C 104.285156 -133.023438 102.828125 -134.617188 100.640625 -135.484375 C 98.453125 -136.347656 95.300781 -136.84375 91.1875 -136.96875 L 91.1875 -140.953125 C 94.769531 -140.828125 99.445312 -140.695312 105.21875 -140.5625 C 110.988281 -140.425781 116.726562 -140.359375 122.4375 -140.359375 C 128.539062 -140.359375 134.28125 -140.425781 139.65625 -140.5625 C 145.039062 -140.695312 149.390625 -140.828125 152.703125 -140.953125 L 152.703125 -136.96875 C 148.453125 -136.84375 145.234375 -136.347656 143.046875 -135.484375 C 140.859375 -134.617188 139.429688 -133.023438 138.765625 -130.703125 C 138.097656 -128.378906 137.765625 -124.765625 137.765625 -119.859375 L 137.765625 -21.109375 C 137.765625 -16.328125 138.128906 -12.738281 138.859375 -10.34375 C 139.597656 -7.957031 141.023438 -6.363281 143.140625 -5.5625 C 145.265625 -4.769531 148.453125 -4.242188 152.703125 -3.984375 L 152.703125 0 C 149.390625 -0.257812 145.039062 -0.421875 139.65625 -0.484375 C 134.28125 -0.554688 128.539062 -0.59375 122.4375 -0.59375 C 116.726562 -0.59375 110.988281 -0.554688 105.21875 -0.484375 C 99.445312 -0.421875 94.769531 -0.257812 91.1875 0 Z M 6.765625 0 L 6.765625 -3.984375 C 11.015625 -4.242188 14.203125 -4.769531 16.328125 -5.5625 C 18.453125 -6.363281 19.878906 -7.957031 20.609375 -10.34375 C 21.335938 -12.738281 21.703125 -16.328125 21.703125 -21.109375 L 21.703125 -119.859375 C 21.703125 -124.765625 21.335938 -128.378906 20.609375 -130.703125 C 19.878906 -133.023438 18.414062 -134.617188 16.21875 -135.484375 C 14.03125 -136.347656 10.878906 -136.84375 6.765625 -136.96875 L 6.765625 -140.953125 C 10.222656 -140.828125 14.703125 -140.695312 20.203125 -140.5625 C 25.710938 -140.425781 31.71875 -140.359375 38.21875 -140.359375 C 43.800781 -140.359375 49.3125 -140.425781 54.75 -140.5625 C 60.1875 -140.695312 64.703125 -140.828125 68.296875 -140.953125 L 68.296875 -136.96875 C 64.046875 -136.84375 60.820312 -136.347656 58.625 -135.484375 C 56.4375 -134.617188 55.007812 -133.023438 54.34375 -130.703125 C 53.6875 -128.378906 53.359375 -124.765625 53.359375 -119.859375 L 53.359375 -21.109375 C 53.359375 -16.328125 53.722656 -12.738281 54.453125 -10.34375 C 55.179688 -7.957031 56.609375 -6.363281 58.734375 -5.5625 C 60.859375 -4.769531 64.046875 -4.242188 68.296875 -3.984375 L 68.296875 0 C 64.703125 -0.257812 60.1875 -0.421875 54.75 -0.484375 C 49.3125 -0.554688 43.800781 -0.59375 38.21875 -0.59375 C 31.71875 -0.59375 25.710938 -0.554688 20.203125 -0.484375 C 14.703125 -0.421875 10.222656 -0.257812 6.765625 0 Z M 40.421875 -68.890625 L 40.421875 -72.875 L 119.0625 -72.875 L 119.0625 -68.890625 Z M 40.421875 -68.890625 "/></g></g></g><g fill="#ffffff" fill-opacity="1"><g transform="translate(559.147681, 215.967019)"><g><path d="M 137.96875 -140.953125 L 137.96875 -136.96875 C 133.71875 -136.445312 130.53125 -135.351562 128.40625 -133.6875 C 126.289062 -132.03125 124.867188 -129.410156 124.140625 -125.828125 C 123.410156 -122.242188 123.046875 -117.203125 123.046875 -110.703125 L 123.046875 0.390625 C 121.453125 0.265625 119.820312 0.203125 118.15625 0.203125 C 116.5 0.203125 114.742188 0.265625 112.890625 0.390625 L 26.484375 -109.109375 L 26.484375 -32.65625 C 26.484375 -25.351562 26.878906 -19.742188 27.671875 -15.828125 C 28.472656 -11.910156 30.234375 -9.125 32.953125 -7.46875 C 35.671875 -5.8125 39.953125 -4.648438 45.796875 -3.984375 L 45.796875 0 C 43.273438 -0.257812 39.957031 -0.421875 35.84375 -0.484375 C 31.726562 -0.554688 27.878906 -0.59375 24.296875 -0.59375 C 21.234375 -0.59375 18.109375 -0.554688 14.921875 -0.484375 C 11.742188 -0.421875 9.09375 -0.257812 6.96875 0 L 6.96875 -3.984375 C 11.21875 -4.648438 14.398438 -5.773438 16.515625 -7.359375 C 18.640625 -8.953125 20.066406 -11.570312 20.796875 -15.21875 C 21.535156 -18.875 21.90625 -23.890625 21.90625 -30.265625 L 21.90625 -119.859375 C 21.90625 -124.765625 21.535156 -128.378906 20.796875 -130.703125 C 20.066406 -133.023438 18.609375 -134.617188 16.421875 -135.484375 C 14.234375 -136.347656 11.082031 -136.84375 6.96875 -136.96875 L 6.96875 -140.953125 C 9.09375 -140.828125 11.742188 -140.695312 14.921875 -140.5625 C 18.109375 -140.425781 21.234375 -140.359375 24.296875 -140.359375 C 27.472656 -140.359375 30.519531 -140.425781 33.4375 -140.5625 C 36.363281 -140.695312 39.019531 -140.828125 41.40625 -140.953125 L 118.453125 -45.984375 L 118.453125 -108.3125 C 118.453125 -115.601562 118.054688 -121.207031 117.265625 -125.125 C 116.472656 -129.039062 114.710938 -131.863281 111.984375 -133.59375 C 109.265625 -135.320312 104.988281 -136.445312 99.15625 -136.96875 L 99.15625 -140.953125 C 101.675781 -140.828125 104.992188 -140.695312 109.109375 -140.5625 C 113.222656 -140.425781 117.070312 -140.359375 120.65625 -140.359375 C 123.832031 -140.359375 126.976562 -140.425781 130.09375 -140.5625 C 133.21875 -140.695312 135.84375 -140.828125 137.96875 -140.953125 Z M 137.96875 -140.953125 "/></g></g></g><g fill="#ffffff" fill-opacity="1"><g transform="translate(702.888579, 215.967019)"><g><path d="M 73.265625 -141.359375 L 121.640625 -16.71875 C 123.503906 -11.945312 125.597656 -8.664062 127.921875 -6.875 C 130.242188 -5.082031 132.332031 -4.117188 134.1875 -3.984375 L 134.1875 0 C 130.207031 -0.257812 125.53125 -0.421875 120.15625 -0.484375 C 114.78125 -0.554688 109.367188 -0.59375 103.921875 -0.59375 C 97.816406 -0.59375 92.039062 -0.554688 86.59375 -0.484375 C 81.15625 -0.421875 76.847656 -0.257812 73.671875 0 L 73.671875 -3.984375 C 80.429688 -4.242188 84.707031 -5.398438 86.5 -7.453125 C 88.289062 -9.515625 87.863281 -13.929688 85.21875 -20.703125 L 51.359375 -113.28125 L 54.953125 -118.453125 L 24.6875 -39.625 C 21.769531 -32.320312 20.007812 -26.347656 19.40625 -21.703125 C 18.8125 -17.054688 19.144531 -13.472656 20.40625 -10.953125 C 21.664062 -8.429688 23.722656 -6.671875 26.578125 -5.671875 C 29.429688 -4.679688 32.847656 -4.117188 36.828125 -3.984375 L 36.828125 0 C 32.453125 -0.257812 28.269531 -0.421875 24.28125 -0.484375 C 20.300781 -0.554688 16.253906 -0.59375 12.140625 -0.59375 C 9.222656 -0.59375 6.46875 -0.554688 3.875 -0.484375 C 1.289062 -0.421875 -0.992188 -0.257812 -2.984375 0 L -2.984375 -3.984375 C -0.203125 -4.515625 2.644531 -6.304688 5.5625 -9.359375 C 8.488281 -12.410156 11.347656 -17.585938 14.140625 -24.890625 L 59.53125 -141.359375 C 61.65625 -141.222656 63.941406 -141.15625 66.390625 -141.15625 C 68.847656 -141.15625 71.140625 -141.222656 73.265625 -141.359375 Z M 87.203125 -57.34375 L 87.203125 -53.359375 L 27.875 -53.359375 L 29.859375 -57.34375 Z M 87.203125 -57.34375 "/></g></g></g></g></g></g><g mask="url(#4b46bc3084)"><g transform="matrix(1, 0, 0, 1, 1137, 224)"><g clip-path="url(#67506443d5)"><g fill="#ffffff" fill-opacity="1"><g transform="translate(0.689715, 215.967019)"><g><path d="M 127.8125 -140.953125 C 127.28125 -134.179688 126.914062 -127.675781 126.71875 -121.4375 C 126.519531 -115.207031 126.421875 -110.429688 126.421875 -107.109375 C 126.421875 -104.191406 126.488281 -101.40625 126.625 -98.75 C 126.757812 -96.09375 126.890625 -93.835938 127.015625 -91.984375 L 122.4375 -91.984375 C 120.3125 -103.128906 117.625 -111.953125 114.375 -118.453125 C 111.125 -124.960938 107.242188 -129.578125 102.734375 -132.296875 C 98.222656 -135.015625 92.914062 -136.375 86.8125 -136.375 L 82.21875 -136.375 L 82.21875 -22.703125 C 82.21875 -17.390625 82.78125 -13.40625 83.90625 -10.75 C 85.039062 -8.09375 87.132812 -6.332031 90.1875 -5.46875 C 93.238281 -4.613281 97.6875 -4.117188 103.53125 -3.984375 L 103.53125 0 C 99.414062 -0.132812 93.9375 -0.265625 87.09375 -0.390625 C 80.257812 -0.523438 73.128906 -0.59375 65.703125 -0.59375 C 58.398438 -0.59375 51.492188 -0.523438 44.984375 -0.390625 C 38.484375 -0.265625 33.242188 -0.132812 29.265625 0 L 29.265625 -3.984375 C 35.234375 -4.117188 39.742188 -4.613281 42.796875 -5.46875 C 45.859375 -6.332031 47.914062 -8.09375 48.96875 -10.75 C 50.03125 -13.40625 50.5625 -17.390625 50.5625 -22.703125 L 50.5625 -136.375 L 46.1875 -136.375 C 40.082031 -136.375 34.773438 -135.015625 30.265625 -132.296875 C 25.753906 -129.578125 21.90625 -125 18.71875 -118.5625 C 15.53125 -112.125 12.742188 -103.265625 10.359375 -91.984375 L 5.78125 -91.984375 C 6.039062 -93.835938 6.203125 -96.09375 6.265625 -98.75 C 6.335938 -101.40625 6.375 -104.191406 6.375 -107.109375 C 6.375 -110.429688 6.273438 -115.207031 6.078125 -121.4375 C 5.878906 -127.675781 5.515625 -134.179688 4.984375 -140.953125 C 11.085938 -140.828125 17.753906 -140.695312 24.984375 -140.5625 C 32.222656 -140.425781 39.488281 -140.359375 46.78125 -140.359375 C 54.082031 -140.359375 60.65625 -140.359375 66.5 -140.359375 C 72.46875 -140.359375 79.066406 -140.359375 86.296875 -140.359375 C 93.535156 -140.359375 100.804688 -140.425781 108.109375 -140.5625 C 115.410156 -140.695312 121.976562 -140.828125 127.8125 -140.953125 Z M 127.8125 -140.953125 "/></g></g></g><g fill="#ffffff" fill-opacity="1"><g transform="translate(133.679918, 215.967019)"><g><path d="M 113.28125 -140.953125 C 112.75 -135.117188 112.382812 -129.476562 112.1875 -124.03125 C 111.988281 -118.59375 111.890625 -114.414062 111.890625 -111.5 C 111.890625 -108.84375 111.953125 -106.316406 112.078125 -103.921875 C 112.210938 -101.535156 112.347656 -99.546875 112.484375 -97.953125 L 107.90625 -97.953125 C 106.582031 -107.640625 104.523438 -115.300781 101.734375 -120.9375 C 98.953125 -126.582031 95.335938 -130.566406 90.890625 -132.890625 C 86.441406 -135.210938 81.226562 -136.375 75.25 -136.375 L 67.09375 -136.375 C 63.25 -136.375 60.328125 -136.039062 58.328125 -135.375 C 56.335938 -134.71875 55.007812 -133.394531 54.34375 -131.40625 C 53.6875 -129.414062 53.359375 -126.363281 53.359375 -122.25 L 53.359375 -18.71875 C 53.359375 -14.601562 53.6875 -11.546875 54.34375 -9.546875 C 55.007812 -7.554688 56.335938 -6.226562 58.328125 -5.5625 C 60.328125 -4.90625 63.25 -4.578125 67.09375 -4.578125 L 76.84375 -4.578125 C 82.820312 -4.578125 88.097656 -5.867188 92.671875 -8.453125 C 97.253906 -11.046875 101.171875 -15.460938 104.421875 -21.703125 C 107.671875 -27.941406 110.160156 -36.367188 111.890625 -46.984375 L 116.46875 -46.984375 C 116.070312 -42.734375 115.875 -37.160156 115.875 -30.265625 C 115.875 -27.210938 115.9375 -22.894531 116.0625 -17.3125 C 116.195312 -11.738281 116.597656 -5.96875 117.265625 0 C 110.492188 -0.257812 102.859375 -0.421875 94.359375 -0.484375 C 85.867188 -0.554688 78.304688 -0.59375 71.671875 -0.59375 C 68.359375 -0.59375 64.113281 -0.59375 58.9375 -0.59375 C 53.757812 -0.59375 48.179688 -0.554688 42.203125 -0.484375 C 36.234375 -0.421875 30.195312 -0.359375 24.09375 -0.296875 C 17.988281 -0.234375 12.210938 -0.132812 6.765625 0 L 6.765625 -3.984375 C 11.015625 -4.242188 14.203125 -4.769531 16.328125 -5.5625 C 18.453125 -6.363281 19.878906 -7.957031 20.609375 -10.34375 C 21.335938 -12.738281 21.703125 -16.328125 21.703125 -21.109375 L 21.703125 -119.859375 C 21.703125 -124.765625 21.335938 -128.378906 20.609375 -130.703125 C 19.878906 -133.023438 18.414062 -134.617188 16.21875 -135.484375 C 14.03125 -136.347656 10.878906 -136.84375 6.765625 -136.96875 L 6.765625 -140.953125 C 12.210938 -140.828125 17.988281 -140.726562 24.09375 -140.65625 C 30.195312 -140.59375 36.234375 -140.523438 42.203125 -140.453125 C 48.179688 -140.390625 53.757812 -140.359375 58.9375 -140.359375 C 64.113281 -140.359375 68.359375 -140.359375 71.671875 -140.359375 C 77.773438 -140.359375 84.707031 -140.390625 92.46875 -140.453125 C 100.238281 -140.523438 107.175781 -140.691406 113.28125 -140.953125 Z M 82.21875 -72.875 C 82.21875 -72.875 82.21875 -72.207031 82.21875 -70.875 C 82.21875 -69.550781 82.21875 -68.890625 82.21875 -68.890625 L 47.390625 -68.890625 C 47.390625 -68.890625 47.390625 -69.550781 47.390625 -70.875 C 47.390625 -72.207031 47.390625 -72.875 47.390625 -72.875 Z M 88 -99.15625 C 87.46875 -91.582031 87.234375 -85.804688 87.296875 -81.828125 C 87.367188 -77.847656 87.40625 -74.195312 87.40625 -70.875 C 87.40625 -67.5625 87.46875 -63.910156 87.59375 -59.921875 C 87.726562 -55.941406 88.0625 -50.171875 88.59375 -42.609375 L 84.015625 -42.609375 C 83.347656 -47.253906 82.117188 -51.566406 80.328125 -55.546875 C 78.535156 -59.523438 75.976562 -62.742188 72.65625 -65.203125 C 69.34375 -67.660156 65.035156 -68.890625 59.734375 -68.890625 L 59.734375 -72.875 C 63.710938 -72.875 67.09375 -73.703125 69.875 -75.359375 C 72.664062 -77.015625 74.957031 -79.203125 76.75 -81.921875 C 78.539062 -84.648438 79.96875 -87.539062 81.03125 -90.59375 C 82.09375 -93.644531 82.890625 -96.5 83.421875 -99.15625 Z M 88 -99.15625 "/></g></g></g><g clip-path="url(#44332af8b4)"><g fill="#ffffff" fill-opacity="1"><g transform="translate(259.901169, 215.967019)"><g><path d="M 79.046875 -143.75 C 87.804688 -143.75 95.003906 -142.453125 100.640625 -139.859375 C 106.285156 -137.273438 111.296875 -134.253906 115.671875 -130.796875 C 118.328125 -128.804688 120.351562 -128.570312 121.75 -130.09375 C 123.144531 -131.625 124.101562 -135.242188 124.625 -140.953125 L 129.21875 -140.953125 C 128.945312 -135.773438 128.742188 -129.503906 128.609375 -122.140625 C 128.484375 -114.773438 128.421875 -104.988281 128.421875 -92.78125 L 123.84375 -92.78125 C 123.175781 -98.882812 122.3125 -104.09375 121.25 -108.40625 C 120.1875 -112.71875 118.722656 -116.53125 116.859375 -119.84375 C 115.003906 -123.164062 112.351562 -126.15625 108.90625 -128.8125 C 105.582031 -132.132812 101.726562 -134.585938 97.34375 -136.171875 C 92.96875 -137.765625 88.394531 -138.5625 83.625 -138.5625 C 76.457031 -138.5625 70.347656 -136.671875 65.296875 -132.890625 C 60.253906 -129.109375 56.171875 -123.960938 53.046875 -117.453125 C 49.929688 -110.953125 47.644531 -103.617188 46.1875 -95.453125 C 44.726562 -87.296875 44 -78.835938 44 -70.078125 C 44 -61.179688 44.757812 -52.648438 46.28125 -44.484375 C 47.8125 -36.328125 50.203125 -29.0625 53.453125 -22.6875 C 56.703125 -16.320312 60.914062 -11.28125 66.09375 -7.5625 C 71.269531 -3.84375 77.378906 -1.984375 84.421875 -1.984375 C 88.796875 -1.984375 93.207031 -2.8125 97.65625 -4.46875 C 102.101562 -6.132812 105.921875 -8.5625 109.109375 -11.75 C 114.285156 -15.726562 117.800781 -20.671875 119.65625 -26.578125 C 121.507812 -32.484375 122.90625 -40.347656 123.84375 -50.171875 L 128.421875 -50.171875 C 128.421875 -37.554688 128.484375 -27.367188 128.609375 -19.609375 C 128.742188 -11.847656 128.945312 -5.3125 129.21875 0 L 124.625 0 C 124.101562 -5.707031 123.207031 -9.289062 121.9375 -10.75 C 120.675781 -12.207031 118.585938 -12.007812 115.671875 -10.15625 C 110.765625 -6.707031 105.554688 -3.6875 100.046875 -1.09375 C 94.535156 1.488281 87.46875 2.78125 78.84375 2.78125 C 64.769531 2.78125 52.457031 -0.0664062 41.90625 -5.765625 C 31.351562 -11.472656 23.15625 -19.703125 17.3125 -30.453125 C 11.476562 -41.210938 8.5625 -54.15625 8.5625 -69.28125 C 8.5625 -84.144531 11.578125 -97.148438 17.609375 -108.296875 C 23.648438 -119.453125 31.945312 -128.148438 42.5 -134.390625 C 53.050781 -140.628906 65.234375 -143.75 79.046875 -143.75 Z M 79.046875 -143.75 "/></g></g></g></g></g></g></g><g clip-path="url(#a1c29a977c)"><g mask="url(#7519924bfb)"><g transform="matrix(1, 0, 0, 1, 0, 463)"><g clip-path="url(#273b45c7ee)"><g clip-path="url(#c5e33dae5d)"><g fill="#ffffff" fill-opacity="1"><g transform="translate(-39.855221, 215.592837)"><g><path d="M 113.28125 -140.953125 C 112.75 -135.117188 112.382812 -129.476562 112.1875 -124.03125 C 111.988281 -118.59375 111.890625 -114.414062 111.890625 -111.5 C 111.890625 -108.84375 111.953125 -106.316406 112.078125 -103.921875 C 112.210938 -101.535156 112.347656 -99.546875 112.484375 -97.953125 L 107.90625 -97.953125 C 106.582031 -107.640625 104.523438 -115.300781 101.734375 -120.9375 C 98.953125 -126.582031 95.335938 -130.566406 90.890625 -132.890625 C 86.441406 -135.210938 81.226562 -136.375 75.25 -136.375 L 67.09375 -136.375 C 63.25 -136.375 60.328125 -136.039062 58.328125 -135.375 C 56.335938 -134.71875 55.007812 -133.394531 54.34375 -131.40625 C 53.6875 -129.414062 53.359375 -126.363281 53.359375 -122.25 L 53.359375 -18.71875 C 53.359375 -14.601562 53.6875 -11.546875 54.34375 -9.546875 C 55.007812 -7.554688 56.335938 -6.226562 58.328125 -5.5625 C 60.328125 -4.90625 63.25 -4.578125 67.09375 -4.578125 L 76.84375 -4.578125 C 82.820312 -4.578125 88.097656 -5.867188 92.671875 -8.453125 C 97.253906 -11.046875 101.171875 -15.460938 104.421875 -21.703125 C 107.671875 -27.941406 110.160156 -36.367188 111.890625 -46.984375 L 116.46875 -46.984375 C 116.070312 -42.734375 115.875 -37.160156 115.875 -30.265625 C 115.875 -27.210938 115.9375 -22.894531 116.0625 -17.3125 C 116.195312 -11.738281 116.597656 -5.96875 117.265625 0 C 110.492188 -0.257812 102.859375 -0.421875 94.359375 -0.484375 C 85.867188 -0.554688 78.304688 -0.59375 71.671875 -0.59375 C 68.359375 -0.59375 64.113281 -0.59375 58.9375 -0.59375 C 53.757812 -0.59375 48.179688 -0.554688 42.203125 -0.484375 C 36.234375 -0.421875 30.195312 -0.359375 24.09375 -0.296875 C 17.988281 -0.234375 12.210938 -0.132812 6.765625 0 L 6.765625 -3.984375 C 11.015625 -4.242188 14.203125 -4.769531 16.328125 -5.5625 C 18.453125 -6.363281 19.878906 -7.957031 20.609375 -10.34375 C 21.335938 -12.738281 21.703125 -16.328125 21.703125 -21.109375 L 21.703125 -119.859375 C 21.703125 -124.765625 21.335938 -128.378906 20.609375 -130.703125 C 19.878906 -133.023438 18.414062 -134.617188 16.21875 -135.484375 C 14.03125 -136.347656 10.878906 -136.84375 6.765625 -136.96875 L 6.765625 -140.953125 C 12.210938 -140.828125 17.988281 -140.726562 24.09375 -140.65625 C 30.195312 -140.59375 36.234375 -140.523438 42.203125 -140.453125 C 48.179688 -140.390625 53.757812 -140.359375 58.9375 -140.359375 C 64.113281 -140.359375 68.359375 -140.359375 71.671875 -140.359375 C 77.773438 -140.359375 84.707031 -140.390625 92.46875 -140.453125 C 100.238281 -140.523438 107.175781 -140.691406 113.28125 -140.953125 Z M 82.21875 -72.875 C 82.21875 -72.875 82.21875 -72.207031 82.21875 -70.875 C 82.21875 -69.550781 82.21875 -68.890625 82.21875 -68.890625 L 47.390625 -68.890625 C 47.390625 -68.890625 47.390625 -69.550781 47.390625 -70.875 C 47.390625 -72.207031 47.390625 -72.875 47.390625 -72.875 Z M 88 -99.15625 C 87.46875 -91.582031 87.234375 -85.804688 87.296875 -81.828125 C 87.367188 -77.847656 87.40625 -74.195312 87.40625 -70.875 C 87.40625 -67.5625 87.46875 -63.910156 87.59375 -59.921875 C 87.726562 -55.941406 88.0625 -50.171875 88.59375 -42.609375 L 84.015625 -42.609375 C 83.347656 -47.253906 82.117188 -51.566406 80.328125 -55.546875 C 78.535156 -59.523438 75.976562 -62.742188 72.65625 -65.203125 C 69.34375 -67.660156 65.035156 -68.890625 59.734375 -68.890625 L 59.734375 -72.875 C 63.710938 -72.875 67.09375 -73.703125 69.875 -75.359375 C 72.664062 -77.015625 74.957031 -79.203125 76.75 -81.921875 C 78.539062 -84.648438 79.96875 -87.539062 81.03125 -90.59375 C 82.09375 -93.644531 82.890625 -96.5 83.421875 -99.15625 Z M 88 -99.15625 "/></g></g></g></g><g fill="#ffffff" fill-opacity="1"><g transform="translate(86.36603, 215.592837)"><g><path d="M 79.046875 -143.75 C 87.804688 -143.75 95.003906 -142.453125 100.640625 -139.859375 C 106.285156 -137.273438 111.296875 -134.253906 115.671875 -130.796875 C 118.328125 -128.804688 120.351562 -128.570312 121.75 -130.09375 C 123.144531 -131.625 124.101562 -135.242188 124.625 -140.953125 L 129.21875 -140.953125 C 128.945312 -135.773438 128.742188 -129.503906 128.609375 -122.140625 C 128.484375 -114.773438 128.421875 -104.988281 128.421875 -92.78125 L 123.84375 -92.78125 C 123.175781 -98.882812 122.3125 -104.09375 121.25 -108.40625 C 120.1875 -112.71875 118.722656 -116.53125 116.859375 -119.84375 C 115.003906 -123.164062 112.351562 -126.15625 108.90625 -128.8125 C 105.582031 -132.132812 101.726562 -134.585938 97.34375 -136.171875 C 92.96875 -137.765625 88.394531 -138.5625 83.625 -138.5625 C 76.457031 -138.5625 70.347656 -136.671875 65.296875 -132.890625 C 60.253906 -129.109375 56.171875 -123.960938 53.046875 -117.453125 C 49.929688 -110.953125 47.644531 -103.617188 46.1875 -95.453125 C 44.726562 -87.296875 44 -78.835938 44 -70.078125 C 44 -61.179688 44.757812 -52.648438 46.28125 -44.484375 C 47.8125 -36.328125 50.203125 -29.0625 53.453125 -22.6875 C 56.703125 -16.320312 60.914062 -11.28125 66.09375 -7.5625 C 71.269531 -3.84375 77.378906 -1.984375 84.421875 -1.984375 C 88.796875 -1.984375 93.207031 -2.8125 97.65625 -4.46875 C 102.101562 -6.132812 105.921875 -8.5625 109.109375 -11.75 C 114.285156 -15.726562 117.800781 -20.671875 119.65625 -26.578125 C 121.507812 -32.484375 122.90625 -40.347656 123.84375 -50.171875 L 128.421875 -50.171875 C 128.421875 -37.554688 128.484375 -27.367188 128.609375 -19.609375 C 128.742188 -11.847656 128.945312 -5.3125 129.21875 0 L 124.625 0 C 124.101562 -5.707031 123.207031 -9.289062 121.9375 -10.75 C 120.675781 -12.207031 118.585938 -12.007812 115.671875 -10.15625 C 110.765625 -6.707031 105.554688 -3.6875 100.046875 -1.09375 C 94.535156 1.488281 87.46875 2.78125 78.84375 2.78125 C 64.769531 2.78125 52.457031 -0.0664062 41.90625 -5.765625 C 31.351562 -11.472656 23.15625 -19.703125 17.3125 -30.453125 C 11.476562 -41.210938 8.5625 -54.15625 8.5625 -69.28125 C 8.5625 -84.144531 11.578125 -97.148438 17.609375 -108.296875 C 23.648438 -119.453125 31.945312 -128.148438 42.5 -134.390625 C 53.050781 -140.628906 65.234375 -143.75 79.046875 -143.75 Z M 79.046875 -143.75 "/></g></g></g><g fill="#ffffff" fill-opacity="1"><g transform="translate(226.722456, 215.592837)"><g><path d="M 91.1875 0 L 91.1875 -3.984375 C 95.4375 -4.242188 98.617188 -4.769531 100.734375 -5.5625 C 102.859375 -6.363281 104.285156 -7.957031 105.015625 -10.34375 C 105.742188 -12.738281 106.109375 -16.328125 106.109375 -21.109375 L 106.109375 -119.859375 C 106.109375 -124.765625 105.742188 -128.378906 105.015625 -130.703125 C 104.285156 -133.023438 102.828125 -134.617188 100.640625 -135.484375 C 98.453125 -136.347656 95.300781 -136.84375 91.1875 -136.96875 L 91.1875 -140.953125 C 94.769531 -140.828125 99.445312 -140.695312 105.21875 -140.5625 C 110.988281 -140.425781 116.726562 -140.359375 122.4375 -140.359375 C 128.539062 -140.359375 134.28125 -140.425781 139.65625 -140.5625 C 145.039062 -140.695312 149.390625 -140.828125 152.703125 -140.953125 L 152.703125 -136.96875 C 148.453125 -136.84375 145.234375 -136.347656 143.046875 -135.484375 C 140.859375 -134.617188 139.429688 -133.023438 138.765625 -130.703125 C 138.097656 -128.378906 137.765625 -124.765625 137.765625 -119.859375 L 137.765625 -21.109375 C 137.765625 -16.328125 138.128906 -12.738281 138.859375 -10.34375 C 139.597656 -7.957031 141.023438 -6.363281 143.140625 -5.5625 C 145.265625 -4.769531 148.453125 -4.242188 152.703125 -3.984375 L 152.703125 0 C 149.390625 -0.257812 145.039062 -0.421875 139.65625 -0.484375 C 134.28125 -0.554688 128.539062 -0.59375 122.4375 -0.59375 C 116.726562 -0.59375 110.988281 -0.554688 105.21875 -0.484375 C 99.445312 -0.421875 94.769531 -0.257812 91.1875 0 Z M 6.765625 0 L 6.765625 -3.984375 C 11.015625 -4.242188 14.203125 -4.769531 16.328125 -5.5625 C 18.453125 -6.363281 19.878906 -7.957031 20.609375 -10.34375 C 21.335938 -12.738281 21.703125 -16.328125 21.703125 -21.109375 L 21.703125 -119.859375 C 21.703125 -124.765625 21.335938 -128.378906 20.609375 -130.703125 C 19.878906 -133.023438 18.414062 -134.617188 16.21875 -135.484375 C 14.03125 -136.347656 10.878906 -136.84375 6.765625 -136.96875 L 6.765625 -140.953125 C 10.222656 -140.828125 14.703125 -140.695312 20.203125 -140.5625 C 25.710938 -140.425781 31.71875 -140.359375 38.21875 -140.359375 C 43.800781 -140.359375 49.3125 -140.425781 54.75 -140.5625 C 60.1875 -140.695312 64.703125 -140.828125 68.296875 -140.953125 L 68.296875 -136.96875 C 64.046875 -136.84375 60.820312 -136.347656 58.625 -135.484375 C 56.4375 -134.617188 55.007812 -133.023438 54.34375 -130.703125 C 53.6875 -128.378906 53.359375 -124.765625 53.359375 -119.859375 L 53.359375 -21.109375 C 53.359375 -16.328125 53.722656 -12.738281 54.453125 -10.34375 C 55.179688 -7.957031 56.609375 -6.363281 58.734375 -5.5625 C 60.859375 -4.769531 64.046875 -4.242188 68.296875 -3.984375 L 68.296875 0 C 64.703125 -0.257812 60.1875 -0.421875 54.75 -0.484375 C 49.3125 -0.554688 43.800781 -0.59375 38.21875 -0.59375 C 31.71875 -0.59375 25.710938 -0.554688 20.203125 -0.484375 C 14.703125 -0.421875 10.222656 -0.257812 6.765625 0 Z M 40.421875 -68.890625 L 40.421875 -72.875 L 119.0625 -72.875 L 119.0625 -68.890625 Z M 40.421875 -68.890625 "/></g></g></g><g fill="#ffffff" fill-opacity="1"><g transform="translate(385.992208, 215.592837)"><g><path d="M 137.96875 -140.953125 L 137.96875 -136.96875 C 133.71875 -136.445312 130.53125 -135.351562 128.40625 -133.6875 C 126.289062 -132.03125 124.867188 -129.410156 124.140625 -125.828125 C 123.410156 -122.242188 123.046875 -117.203125 123.046875 -110.703125 L 123.046875 0.390625 C 121.453125 0.265625 119.820312 0.203125 118.15625 0.203125 C 116.5 0.203125 114.742188 0.265625 112.890625 0.390625 L 26.484375 -109.109375 L 26.484375 -32.65625 C 26.484375 -25.351562 26.878906 -19.742188 27.671875 -15.828125 C 28.472656 -11.910156 30.234375 -9.125 32.953125 -7.46875 C 35.671875 -5.8125 39.953125 -4.648438 45.796875 -3.984375 L 45.796875 0 C 43.273438 -0.257812 39.957031 -0.421875 35.84375 -0.484375 C 31.726562 -0.554688 27.878906 -0.59375 24.296875 -0.59375 C 21.234375 -0.59375 18.109375 -0.554688 14.921875 -0.484375 C 11.742188 -0.421875 9.09375 -0.257812 6.96875 0 L 6.96875 -3.984375 C 11.21875 -4.648438 14.398438 -5.773438 16.515625 -7.359375 C 18.640625 -8.953125 20.066406 -11.570312 20.796875 -15.21875 C 21.535156 -18.875 21.90625 -23.890625 21.90625 -30.265625 L 21.90625 -119.859375 C 21.90625 -124.765625 21.535156 -128.378906 20.796875 -130.703125 C 20.066406 -133.023438 18.609375 -134.617188 16.421875 -135.484375 C 14.234375 -136.347656 11.082031 -136.84375 6.96875 -136.96875 L 6.96875 -140.953125 C 9.09375 -140.828125 11.742188 -140.695312 14.921875 -140.5625 C 18.109375 -140.425781 21.234375 -140.359375 24.296875 -140.359375 C 27.472656 -140.359375 30.519531 -140.425781 33.4375 -140.5625 C 36.363281 -140.695312 39.019531 -140.828125 41.40625 -140.953125 L 118.453125 -45.984375 L 118.453125 -108.3125 C 118.453125 -115.601562 118.054688 -121.207031 117.265625 -125.125 C 116.472656 -129.039062 114.710938 -131.863281 111.984375 -133.59375 C 109.265625 -135.320312 104.988281 -136.445312 99.15625 -136.96875 L 99.15625 -140.953125 C 101.675781 -140.828125 104.992188 -140.695312 109.109375 -140.5625 C 113.222656 -140.425781 117.070312 -140.359375 120.65625 -140.359375 C 123.832031 -140.359375 126.976562 -140.425781 130.09375 -140.5625 C 133.21875 -140.695312 135.84375 -140.828125 137.96875 -140.953125 Z M 137.96875 -140.953125 "/></g></g></g><g fill="#ffffff" fill-opacity="1"><g transform="translate(529.733105, 215.592837)"><g><path d="M 73.265625 -141.359375 L 121.640625 -16.71875 C 123.503906 -11.945312 125.597656 -8.664062 127.921875 -6.875 C 130.242188 -5.082031 132.332031 -4.117188 134.1875 -3.984375 L 134.1875 0 C 130.207031 -0.257812 125.53125 -0.421875 120.15625 -0.484375 C 114.78125 -0.554688 109.367188 -0.59375 103.921875 -0.59375 C 97.816406 -0.59375 92.039062 -0.554688 86.59375 -0.484375 C 81.15625 -0.421875 76.847656 -0.257812 73.671875 0 L 73.671875 -3.984375 C 80.429688 -4.242188 84.707031 -5.398438 86.5 -7.453125 C 88.289062 -9.515625 87.863281 -13.929688 85.21875 -20.703125 L 51.359375 -113.28125 L 54.953125 -118.453125 L 24.6875 -39.625 C 21.769531 -32.320312 20.007812 -26.347656 19.40625 -21.703125 C 18.8125 -17.054688 19.144531 -13.472656 20.40625 -10.953125 C 21.664062 -8.429688 23.722656 -6.671875 26.578125 -5.671875 C 29.429688 -4.679688 32.847656 -4.117188 36.828125 -3.984375 L 36.828125 0 C 32.453125 -0.257812 28.269531 -0.421875 24.28125 -0.484375 C 20.300781 -0.554688 16.253906 -0.59375 12.140625 -0.59375 C 9.222656 -0.59375 6.46875 -0.554688 3.875 -0.484375 C 1.289062 -0.421875 -0.992188 -0.257812 -2.984375 0 L -2.984375 -3.984375 C -0.203125 -4.515625 2.644531 -6.304688 5.5625 -9.359375 C 8.488281 -12.410156 11.347656 -17.585938 14.140625 -24.890625 L 59.53125 -141.359375 C 61.65625 -141.222656 63.941406 -141.15625 66.390625 -141.15625 C 68.847656 -141.15625 71.140625 -141.222656 73.265625 -141.359375 Z M 87.203125 -57.34375 L 87.203125 -53.359375 L 27.875 -53.359375 L 29.859375 -57.34375 Z M 87.203125 -57.34375 "/></g></g></g></g></g></g></g><g clip-path="url(#0cb00da71c)"><g mask="url(#f08e0b844b)"><g transform="matrix(1, 0, 0, 1, 662, 463)"><g clip-path="url(#0b732531ac)"><g fill="#ffffff" fill-opacity="1"><g transform="translate(0.534328, 215.592837)"><g><path d="M 127.8125 -140.953125 C 127.28125 -134.179688 126.914062 -127.675781 126.71875 -121.4375 C 126.519531 -115.207031 126.421875 -110.429688 126.421875 -107.109375 C 126.421875 -104.191406 126.488281 -101.40625 126.625 -98.75 C 126.757812 -96.09375 126.890625 -93.835938 127.015625 -91.984375 L 122.4375 -91.984375 C 120.3125 -103.128906 117.625 -111.953125 114.375 -118.453125 C 111.125 -124.960938 107.242188 -129.578125 102.734375 -132.296875 C 98.222656 -135.015625 92.914062 -136.375 86.8125 -136.375 L 82.21875 -136.375 L 82.21875 -22.703125 C 82.21875 -17.390625 82.78125 -13.40625 83.90625 -10.75 C 85.039062 -8.09375 87.132812 -6.332031 90.1875 -5.46875 C 93.238281 -4.613281 97.6875 -4.117188 103.53125 -3.984375 L 103.53125 0 C 99.414062 -0.132812 93.9375 -0.265625 87.09375 -0.390625 C 80.257812 -0.523438 73.128906 -0.59375 65.703125 -0.59375 C 58.398438 -0.59375 51.492188 -0.523438 44.984375 -0.390625 C 38.484375 -0.265625 33.242188 -0.132812 29.265625 0 L 29.265625 -3.984375 C 35.234375 -4.117188 39.742188 -4.613281 42.796875 -5.46875 C 45.859375 -6.332031 47.914062 -8.09375 48.96875 -10.75 C 50.03125 -13.40625 50.5625 -17.390625 50.5625 -22.703125 L 50.5625 -136.375 L 46.1875 -136.375 C 40.082031 -136.375 34.773438 -135.015625 30.265625 -132.296875 C 25.753906 -129.578125 21.90625 -125 18.71875 -118.5625 C 15.53125 -112.125 12.742188 -103.265625 10.359375 -91.984375 L 5.78125 -91.984375 C 6.039062 -93.835938 6.203125 -96.09375 6.265625 -98.75 C 6.335938 -101.40625 6.375 -104.191406 6.375 -107.109375 C 6.375 -110.429688 6.273438 -115.207031 6.078125 -121.4375 C 5.878906 -127.675781 5.515625 -134.179688 4.984375 -140.953125 C 11.085938 -140.828125 17.753906 -140.695312 24.984375 -140.5625 C 32.222656 -140.425781 39.488281 -140.359375 46.78125 -140.359375 C 54.082031 -140.359375 60.65625 -140.359375 66.5 -140.359375 C 72.46875 -140.359375 79.066406 -140.359375 86.296875 -140.359375 C 93.535156 -140.359375 100.804688 -140.425781 108.109375 -140.5625 C 115.410156 -140.695312 121.976562 -140.828125 127.8125 -140.953125 Z M 127.8125 -140.953125 "/></g></g></g><g fill="#ffffff" fill-opacity="1"><g transform="translate(133.524532, 215.592837)"><g><path d="M 113.28125 -140.953125 C 112.75 -135.117188 112.382812 -129.476562 112.1875 -124.03125 C 111.988281 -118.59375 111.890625 -114.414062 111.890625 -111.5 C 111.890625 -108.84375 111.953125 -106.316406 112.078125 -103.921875 C 112.210938 -101.535156 112.347656 -99.546875 112.484375 -97.953125 L 107.90625 -97.953125 C 106.582031 -107.640625 104.523438 -115.300781 101.734375 -120.9375 C 98.953125 -126.582031 95.335938 -130.566406 90.890625 -132.890625 C 86.441406 -135.210938 81.226562 -136.375 75.25 -136.375 L 67.09375 -136.375 C 63.25 -136.375 60.328125 -136.039062 58.328125 -135.375 C 56.335938 -134.71875 55.007812 -133.394531 54.34375 -131.40625 C 53.6875 -129.414062 53.359375 -126.363281 53.359375 -122.25 L 53.359375 -18.71875 C 53.359375 -14.601562 53.6875 -11.546875 54.34375 -9.546875 C 55.007812 -7.554688 56.335938 -6.226562 58.328125 -5.5625 C 60.328125 -4.90625 63.25 -4.578125 67.09375 -4.578125 L 76.84375 -4.578125 C 82.820312 -4.578125 88.097656 -5.867188 92.671875 -8.453125 C 97.253906 -11.046875 101.171875 -15.460938 104.421875 -21.703125 C 107.671875 -27.941406 110.160156 -36.367188 111.890625 -46.984375 L 116.46875 -46.984375 C 116.070312 -42.734375 115.875 -37.160156 115.875 -30.265625 C 115.875 -27.210938 115.9375 -22.894531 116.0625 -17.3125 C 116.195312 -11.738281 116.597656 -5.96875 117.265625 0 C 110.492188 -0.257812 102.859375 -0.421875 94.359375 -0.484375 C 85.867188 -0.554688 78.304688 -0.59375 71.671875 -0.59375 C 68.359375 -0.59375 64.113281 -0.59375 58.9375 -0.59375 C 53.757812 -0.59375 48.179688 -0.554688 42.203125 -0.484375 C 36.234375 -0.421875 30.195312 -0.359375 24.09375 -0.296875 C 17.988281 -0.234375 12.210938 -0.132812 6.765625 0 L 6.765625 -3.984375 C 11.015625 -4.242188 14.203125 -4.769531 16.328125 -5.5625 C 18.453125 -6.363281 19.878906 -7.957031 20.609375 -10.34375 C 21.335938 -12.738281 21.703125 -16.328125 21.703125 -21.109375 L 21.703125 -119.859375 C 21.703125 -124.765625 21.335938 -128.378906 20.609375 -130.703125 C 19.878906 -133.023438 18.414062 -134.617188 16.21875 -135.484375 C 14.03125 -136.347656 10.878906 -136.84375 6.765625 -136.96875 L 6.765625 -140.953125 C 12.210938 -140.828125 17.988281 -140.726562 24.09375 -140.65625 C 30.195312 -140.59375 36.234375 -140.523438 42.203125 -140.453125 C 48.179688 -140.390625 53.757812 -140.359375 58.9375 -140.359375 C 64.113281 -140.359375 68.359375 -140.359375 71.671875 -140.359375 C 77.773438 -140.359375 84.707031 -140.390625 92.46875 -140.453125 C 100.238281 -140.523438 107.175781 -140.691406 113.28125 -140.953125 Z M 82.21875 -72.875 C 82.21875 -72.875 82.21875 -72.207031 82.21875 -70.875 C 82.21875 -69.550781 82.21875 -68.890625 82.21875 -68.890625 L 47.390625 -68.890625 C 47.390625 -68.890625 47.390625 -69.550781 47.390625 -70.875 C 47.390625 -72.207031 47.390625 -72.875 47.390625 -72.875 Z M 88 -99.15625 C 87.46875 -91.582031 87.234375 -85.804688 87.296875 -81.828125 C 87.367188 -77.847656 87.40625 -74.195312 87.40625 -70.875 C 87.40625 -67.5625 87.46875 -63.910156 87.59375 -59.921875 C 87.726562 -55.941406 88.0625 -50.171875 88.59375 -42.609375 L 84.015625 -42.609375 C 83.347656 -47.253906 82.117188 -51.566406 80.328125 -55.546875 C 78.535156 -59.523438 75.976562 -62.742188 72.65625 -65.203125 C 69.34375 -67.660156 65.035156 -68.890625 59.734375 -68.890625 L 59.734375 -72.875 C 63.710938 -72.875 67.09375 -73.703125 69.875 -75.359375 C 72.664062 -77.015625 74.957031 -79.203125 76.75 -81.921875 C 78.539062 -84.648438 79.96875 -87.539062 81.03125 -90.59375 C 82.09375 -93.644531 82.890625 -96.5 83.421875 -99.15625 Z M 88 -99.15625 "/></g></g></g><g fill="#ffffff" fill-opacity="1"><g transform="translate(259.745783, 215.592837)"><g><path d="M 79.046875 -143.75 C 87.804688 -143.75 95.003906 -142.453125 100.640625 -139.859375 C 106.285156 -137.273438 111.296875 -134.253906 115.671875 -130.796875 C 118.328125 -128.804688 120.351562 -128.570312 121.75 -130.09375 C 123.144531 -131.625 124.101562 -135.242188 124.625 -140.953125 L 129.21875 -140.953125 C 128.945312 -135.773438 128.742188 -129.503906 128.609375 -122.140625 C 128.484375 -114.773438 128.421875 -104.988281 128.421875 -92.78125 L 123.84375 -92.78125 C 123.175781 -98.882812 122.3125 -104.09375 121.25 -108.40625 C 120.1875 -112.71875 118.722656 -116.53125 116.859375 -119.84375 C 115.003906 -123.164062 112.351562 -126.15625 108.90625 -128.8125 C 105.582031 -132.132812 101.726562 -134.585938 97.34375 -136.171875 C 92.96875 -137.765625 88.394531 -138.5625 83.625 -138.5625 C 76.457031 -138.5625 70.347656 -136.671875 65.296875 -132.890625 C 60.253906 -129.109375 56.171875 -123.960938 53.046875 -117.453125 C 49.929688 -110.953125 47.644531 -103.617188 46.1875 -95.453125 C 44.726562 -87.296875 44 -78.835938 44 -70.078125 C 44 -61.179688 44.757812 -52.648438 46.28125 -44.484375 C 47.8125 -36.328125 50.203125 -29.0625 53.453125 -22.6875 C 56.703125 -16.320312 60.914062 -11.28125 66.09375 -7.5625 C 71.269531 -3.84375 77.378906 -1.984375 84.421875 -1.984375 C 88.796875 -1.984375 93.207031 -2.8125 97.65625 -4.46875 C 102.101562 -6.132812 105.921875 -8.5625 109.109375 -11.75 C 114.285156 -15.726562 117.800781 -20.671875 119.65625 -26.578125 C 121.507812 -32.484375 122.90625 -40.347656 123.84375 -50.171875 L 128.421875 -50.171875 C 128.421875 -37.554688 128.484375 -27.367188 128.609375 -19.609375 C 128.742188 -11.847656 128.945312 -5.3125 129.21875 0 L 124.625 0 C 124.101562 -5.707031 123.207031 -9.289062 121.9375 -10.75 C 120.675781 -12.207031 118.585938 -12.007812 115.671875 -10.15625 C 110.765625 -6.707031 105.554688 -3.6875 100.046875 -1.09375 C 94.535156 1.488281 87.46875 2.78125 78.84375 2.78125 C 64.769531 2.78125 52.457031 -0.0664062 41.90625 -5.765625 C 31.351562 -11.472656 23.15625 -19.703125 17.3125 -30.453125 C 11.476562 -41.210938 8.5625 -54.15625 8.5625 -69.28125 C 8.5625 -84.144531 11.578125 -97.148438 17.609375 -108.296875 C 23.648438 -119.453125 31.945312 -128.148438 42.5 -134.390625 C 53.050781 -140.628906 65.234375 -143.75 79.046875 -143.75 Z M 79.046875 -143.75 "/></g></g></g><g fill="#ffffff" fill-opacity="1"><g transform="translate(400.102208, 215.592837)"><g><path d="M 91.1875 0 L 91.1875 -3.984375 C 95.4375 -4.242188 98.617188 -4.769531 100.734375 -5.5625 C 102.859375 -6.363281 104.285156 -7.957031 105.015625 -10.34375 C 105.742188 -12.738281 106.109375 -16.328125 106.109375 -21.109375 L 106.109375 -119.859375 C 106.109375 -124.765625 105.742188 -128.378906 105.015625 -130.703125 C 104.285156 -133.023438 102.828125 -134.617188 100.640625 -135.484375 C 98.453125 -136.347656 95.300781 -136.84375 91.1875 -136.96875 L 91.1875 -140.953125 C 94.769531 -140.828125 99.445312 -140.695312 105.21875 -140.5625 C 110.988281 -140.425781 116.726562 -140.359375 122.4375 -140.359375 C 128.539062 -140.359375 134.28125 -140.425781 139.65625 -140.5625 C 145.039062 -140.695312 149.390625 -140.828125 152.703125 -140.953125 L 152.703125 -136.96875 C 148.453125 -136.84375 145.234375 -136.347656 143.046875 -135.484375 C 140.859375 -134.617188 139.429688 -133.023438 138.765625 -130.703125 C 138.097656 -128.378906 137.765625 -124.765625 137.765625 -119.859375 L 137.765625 -21.109375 C 137.765625 -16.328125 138.128906 -12.738281 138.859375 -10.34375 C 139.597656 -7.957031 141.023438 -6.363281 143.140625 -5.5625 C 145.265625 -4.769531 148.453125 -4.242188 152.703125 -3.984375 L 152.703125 0 C 149.390625 -0.257812 145.039062 -0.421875 139.65625 -0.484375 C 134.28125 -0.554688 128.539062 -0.59375 122.4375 -0.59375 C 116.726562 -0.59375 110.988281 -0.554688 105.21875 -0.484375 C 99.445312 -0.421875 94.769531 -0.257812 91.1875 0 Z M 6.765625 0 L 6.765625 -3.984375 C 11.015625 -4.242188 14.203125 -4.769531 16.328125 -5.5625 C 18.453125 -6.363281 19.878906 -7.957031 20.609375 -10.34375 C 21.335938 -12.738281 21.703125 -16.328125 21.703125 -21.109375 L 21.703125 -119.859375 C 21.703125 -124.765625 21.335938 -128.378906 20.609375 -130.703125 C 19.878906 -133.023438 18.414062 -134.617188 16.21875 -135.484375 C 14.03125 -136.347656 10.878906 -136.84375 6.765625 -136.96875 L 6.765625 -140.953125 C 10.222656 -140.828125 14.703125 -140.695312 20.203125 -140.5625 C 25.710938 -140.425781 31.71875 -140.359375 38.21875 -140.359375 C 43.800781 -140.359375 49.3125 -140.425781 54.75 -140.5625 C 60.1875 -140.695312 64.703125 -140.828125 68.296875 -140.953125 L 68.296875 -136.96875 C 64.046875 -136.84375 60.820312 -136.347656 58.625 -135.484375 C 56.4375 -134.617188 55.007812 -133.023438 54.34375 -130.703125 C 53.6875 -128.378906 53.359375 -124.765625 53.359375 -119.859375 L 53.359375 -21.109375 C 53.359375 -16.328125 53.722656 -12.738281 54.453125 -10.34375 C 55.179688 -7.957031 56.609375 -6.363281 58.734375 -5.5625 C 60.859375 -4.769531 64.046875 -4.242188 68.296875 -3.984375 L 68.296875 0 C 64.703125 -0.257812 60.1875 -0.421875 54.75 -0.484375 C 49.3125 -0.554688 43.800781 -0.59375 38.21875 -0.59375 C 31.71875 -0.59375 25.710938 -0.554688 20.203125 -0.484375 C 14.703125 -0.421875 10.222656 -0.257812 6.765625 0 Z M 40.421875 -68.890625 L 40.421875 -72.875 L 119.0625 -72.875 L 119.0625 -68.890625 Z M 40.421875 -68.890625 "/></g></g></g><g fill="#ffffff" fill-opacity="1"><g transform="translate(559.37196, 215.592837)"><g><path d="M 137.96875 -140.953125 L 137.96875 -136.96875 C 133.71875 -136.445312 130.53125 -135.351562 128.40625 -133.6875 C 126.289062 -132.03125 124.867188 -129.410156 124.140625 -125.828125 C 123.410156 -122.242188 123.046875 -117.203125 123.046875 -110.703125 L 123.046875 0.390625 C 121.453125 0.265625 119.820312 0.203125 118.15625 0.203125 C 116.5 0.203125 114.742188 0.265625 112.890625 0.390625 L 26.484375 -109.109375 L 26.484375 -32.65625 C 26.484375 -25.351562 26.878906 -19.742188 27.671875 -15.828125 C 28.472656 -11.910156 30.234375 -9.125 32.953125 -7.46875 C 35.671875 -5.8125 39.953125 -4.648438 45.796875 -3.984375 L 45.796875 0 C 43.273438 -0.257812 39.957031 -0.421875 35.84375 -0.484375 C 31.726562 -0.554688 27.878906 -0.59375 24.296875 -0.59375 C 21.234375 -0.59375 18.109375 -0.554688 14.921875 -0.484375 C 11.742188 -0.421875 9.09375 -0.257812 6.96875 0 L 6.96875 -3.984375 C 11.21875 -4.648438 14.398438 -5.773438 16.515625 -7.359375 C 18.640625 -8.953125 20.066406 -11.570312 20.796875 -15.21875 C 21.535156 -18.875 21.90625 -23.890625 21.90625 -30.265625 L 21.90625 -119.859375 C 21.90625 -124.765625 21.535156 -128.378906 20.796875 -130.703125 C 20.066406 -133.023438 18.609375 -134.617188 16.421875 -135.484375 C 14.234375 -136.347656 11.082031 -136.84375 6.96875 -136.96875 L 6.96875 -140.953125 C 9.09375 -140.828125 11.742188 -140.695312 14.921875 -140.5625 C 18.109375 -140.425781 21.234375 -140.359375 24.296875 -140.359375 C 27.472656 -140.359375 30.519531 -140.425781 33.4375 -140.5625 C 36.363281 -140.695312 39.019531 -140.828125 41.40625 -140.953125 L 118.453125 -45.984375 L 118.453125 -108.3125 C 118.453125 -115.601562 118.054688 -121.207031 117.265625 -125.125 C 116.472656 -129.039062 114.710938 -131.863281 111.984375 -133.59375 C 109.265625 -135.320312 104.988281 -136.445312 99.15625 -136.96875 L 99.15625 -140.953125 C 101.675781 -140.828125 104.992188 -140.695312 109.109375 -140.5625 C 113.222656 -140.425781 117.070312 -140.359375 120.65625 -140.359375 C 123.832031 -140.359375 126.976562 -140.425781 130.09375 -140.5625 C 133.21875 -140.695312 135.84375 -140.828125 137.96875 -140.953125 Z M 137.96875 -140.953125 "/></g></g></g><g clip-path="url(#fa8cf60014)"><g fill="#ffffff" fill-opacity="1"><g transform="translate(703.112858, 215.592837)"><g><path d="M 73.265625 -141.359375 L 121.640625 -16.71875 C 123.503906 -11.945312 125.597656 -8.664062 127.921875 -6.875 C 130.242188 -5.082031 132.332031 -4.117188 134.1875 -3.984375 L 134.1875 0 C 130.207031 -0.257812 125.53125 -0.421875 120.15625 -0.484375 C 114.78125 -0.554688 109.367188 -0.59375 103.921875 -0.59375 C 97.816406 -0.59375 92.039062 -0.554688 86.59375 -0.484375 C 81.15625 -0.421875 76.847656 -0.257812 73.671875 0 L 73.671875 -3.984375 C 80.429688 -4.242188 84.707031 -5.398438 86.5 -7.453125 C 88.289062 -9.515625 87.863281 -13.929688 85.21875 -20.703125 L 51.359375 -113.28125 L 54.953125 -118.453125 L 24.6875 -39.625 C 21.769531 -32.320312 20.007812 -26.347656 19.40625 -21.703125 C 18.8125 -17.054688 19.144531 -13.472656 20.40625 -10.953125 C 21.664062 -8.429688 23.722656 -6.671875 26.578125 -5.671875 C 29.429688 -4.679688 32.847656 -4.117188 36.828125 -3.984375 L 36.828125 0 C 32.453125 -0.257812 28.269531 -0.421875 24.28125 -0.484375 C 20.300781 -0.554688 16.253906 -0.59375 12.140625 -0.59375 C 9.222656 -0.59375 6.46875 -0.554688 3.875 -0.484375 C 1.289062 -0.421875 -0.992188 -0.257812 -2.984375 0 L -2.984375 -3.984375 C -0.203125 -4.515625 2.644531 -6.304688 5.5625 -9.359375 C 8.488281 -12.410156 11.347656 -17.585938 14.140625 -24.890625 L 59.53125 -141.359375 C 61.65625 -141.222656 63.941406 -141.15625 66.390625 -141.15625 C 68.847656 -141.15625 71.140625 -141.222656 73.265625 -141.359375 Z M 87.203125 -57.34375 L 87.203125 -53.359375 L 27.875 -53.359375 L 29.859375 -57.34375 Z M 87.203125 -57.34375 "/></g></g></g></g></g></g></g></g></g></g></g></svg>